<?xml version="1.0" encoding="UTF-8" standalone="no"?>
<!DOCTYPE svg PUBLIC "-//W3C//DTD SVG 1.1//EN" "http://www.w3.org/Graphics/SVG/1.1/DTD/svg11.dtd">
<svg
   x="0px"
   y="0px"
   width="671.02753"
   height="375.00266"
   viewBox="0 0 671.02753 352.19228"
   xmlns="http://www.w3.org/2000/svg"
   xmlns:xlink="http://www.w3.org/1999/xlink"
   style="enable-background:new 0 0 325.357 325.357;"
   xml:space="preserve">
  <g id="brush">
    <path id="handleFill"
          d="M 47.335035,2.8402266 C 35.958887,2.8855575 29.654668,13.855491 25.580829,22.959087 20.166981,35.072951 12.690377,47.162465 12.032301,60.724992 c 0.71104,11.448872 11.837043,18.909756 21.531531,22.789644 75.793858,27.059954 152.250888,52.279134 228.230188,78.786534 7.11977,3.71029 1.35073,11.72157 0.4707,17.20117 -3.71786,14.50188 -9.73247,28.5297 -12.0293,43.34375 -0.3707,12.48879 8.84171,24.23841 21.08278,26.87331 10.87431,3.55211 21.51972,8.50723 32.74926,10.62083 27.49326,-79.11538 54.74722,-158.32205 81.7871,-237.593754 -10.62616,-5.619155 -22.78002,-8.156334 -33.96957,-12.579936 -11.00657,-4.3855649 -24.51064,-0.7094969 -31.46597,9.038921 -5.68318,8.818942 -7.56949,19.588616 -11.64332,29.194961 -4.56074,11.361585 -7.20601,23.705211 -13.14379,34.422226 -6.76915,3.517663 -13.99024,-2.749204 -20.63837,-3.915072 C 202.0672,53.993104 129.39316,28.296713 56.303785,3.8871021 53.37718,3.1581407 50.357324,2.7071507 47.335035,2.8402266 Z"
          style="fill:#ab6c43" />
    <path id="brushFill"
          d="m 462.51667,49.070695 c -3.25939,2.292263 -3.31167,8.163301 -5.24561,11.901156 -26.17312,75.221019 -51.78525,150.638279 -78.03954,225.831269 65.39509,21.12468 130.53483,43.09227 196.17773,63.41407 4.26278,-0.93135 4.64449,-7.09083 6.65889,-10.44237 1.19036,-2.79027 3.52315,-7.96498 -1.61918,-8.28386 -32.29895,-11.60069 -65.34475,-21.47772 -97.04752,-34.4476 -4.79281,-4.18423 0.91426,-13.21541 6.6543,-10.31836 32.53224,10.14562 64.51659,21.96414 96.91992,32.49023 4.04318,-1.71743 4.0535,-7.50054 5.95117,-11.01953 1.24872,-2.86155 2.7077,-7.51374 -1.79933,-7.97998 -28.62771,-10.51995 -57.96115,-19.31375 -86.26512,-30.5376 -5.17647,-4.29049 0.68192,-14.53727 6.97267,-10.60332 29.06174,8.7042 57.30488,20.11071 86.53514,28.18731 4.13009,-1.70567 3.81521,-7.99768 5.79046,-11.59865 5.43364,-7.69769 -5.43264,-7.31388 -10.40925,-9.85189 -29.63063,-10.56465 -59.88634,-19.72517 -88.93004,-31.72329 -4.48601,-4.55952 1.12471,-13.46055 7.125,-10.05664 32.59318,10.09631 64.71861,21.98594 97.20117,32.56641 4.08554,-3.02765 4.12442,-9.28571 6.12305,-13.7129 2.4049,-4.39039 -2.66514,-5.99376 -6.15252,-6.81929 -27.51766,-9.92718 -55.57489,-18.67992 -82.78303,-29.23539 -4.70959,-4.63569 1.13908,-14.32446 7.39907,-10.46477 29.02421,8.71182 57.58713,19.9081 86.48765,28.67766 3.75728,-2.66086 3.65885,-8.48701 5.26758,-12.55078 1.19779,-2.77799 0.96821,-6.56488 -2.79936,-6.83092 -31.94084,-11.87059 -64.77663,-21.51666 -96.26119,-34.49916 -3.74889,-4.03871 0.1304,-11.97971 5.81446,-10.22656 32.87434,9.65693 64.985,22.28372 97.73242,32.26757 4.38648,-2.419 5.00614,-8.6956 6.99219,-12.97265 1.89333,-3.40993 -0.95895,-6.15606 -4.44532,-6.40235 -28.23434,-10.40981 -57.37997,-18.86184 -85.00976,-30.51562 -3.35531,-4.69482 1.08792,-12.90557 7.08203,-9.95508 29.46292,8.68808 58.43393,20.02704 87.91016,29.09961 2.99921,-5.19296 4.92574,-11.34851 5.33593,-17.31055 -4.00201,-3.95479 -11.03645,-4.15335 -16.0625,-6.76367 -26.89805,-9.872 -54.48237,-17.95123 -80.97265,-28.88867 -7.11557,-1.12976 -4.35376,-11.465746 1.34375,-11.861336 33.25035,9.179326 65.21461,22.707626 98.45312,32.023446 5.44052,1.36862 5.38171,-6.41061 7.16562,-9.70526 1.34875,-2.97928 2.49507,-8.48252 -2.47146,-8.66842 C 591.43071,90.666725 527.75071,69.454392 463.79792,49.14882 c -0.41554,-0.07241 -0.86379,-0.204545 -1.28125,-0.07813 z"
          style="fill:#f4eed7" />
    <path id="metalBand"
          d="m 400.39167,28.045305 c -4.12915,1.577975 -3.57255,8.102868 -5.78146,11.548756 -25.51746,73.958139 -51.51253,147.765709 -76.00174,222.068439 -2.12358,5.29136 5.97062,5.24011 9.12292,7.06162 12.10041,3.92547 23.98836,9.2976 36.36536,11.99893 5.26205,-3.18584 5.05711,-10.94388 7.81055,-15.875 24.50394,-70.42888 49.76389,-140.6103 73.19931,-211.403956 0.64497,-3.20459 4.2183,-8.853183 -0.75791,-10.242539 -14.38501,-5.645543 -28.98501,-11.347669 -43.95703,-15.15625 z"
          style="fill:#ffe680" />
    <path id="outline"
          d="m 676.53282,111.4452 -86.55718,251.37814 c -1.49541,4.33864 -6.22217,6.64403 -10.56083,5.15086 L 263.3704,262.80339 c -21.73421,-7.23254 -33.21134,-31.14518 -25.75431,-52.80415 L 248.46763,173.20153 25.082669,96.562291 C -9.2192041,84.793955 -1.4016779,47.90759 8.2232544,25.571231 17.252754,4.6166779 35.798372,-19.650359 67.493802,-8.6724359 L 286.43219,67.15833 302.53655,21.46522 c 3.61292,-10.490499 11.0945,-18.9481749 21.06932,-23.8132179 9.97302,-4.864166 21.24344,-5.553565 31.73573,-1.941525 L 460.08265,31.774964 c 0.004,0.0023 211.30424,69.108116 211.30424,69.108116 2.07971,0.71909 3.79289,2.23333 4.75862,4.21337 0.96527,1.98138 1.10467,4.26321 0.38731,6.34875 z M 349.92714,11.42436 c -6.29447,-2.1681096 -13.05672,-1.7549176 -19.03999,1.163319 -5.98507,2.919113 -10.47393,7.993451 -12.6407,14.288387 l -18.80979,53.548057 c -1.49541,4.338641 -6.22217,6.644034 -10.56083,5.150861 L 58.442597,6.231204 C 34.970201,-0.355328 27.756503,19.353063 22.316236,33.405242 16.504907,48.415873 6.2469672,67.144884 31.300207,80.851038 35.326916,83.053975 261.73121,160.1948 261.73121,160.1948 c 2.08284,0.71868 3.79603,2.23292 4.76263,4.21476 0.96574,1.98004 1.10557,4.26277 0.38911,6.34787 l -13.55563,44.65312 c -4.47575,12.99635 2.45666,27.20988 15.45259,31.68249 l 34.03887,11.72053 81.14678,-235.667348 z m 49.75147,17.130056 -81.14678,235.667344 47.13374,16.22945 81.14677,-235.667347 z m 62.84588,21.638078 -81.14813,235.669116 195.59211,63.69725 5.40905,-15.70902 -96.88382,-33.36351 c -4.33954,-1.49497 -6.64494,-6.22173 -5.15086,-10.56083 0.7477,-2.16932 2.30392,-3.83066 4.21475,-4.76264 1.91084,-0.93197 4.17809,-1.13547 6.34787,-0.3891 l 96.88428,33.36218 5.41041,-15.71079 -86.41162,-29.75391 c -4.33954,-1.49497 -6.64494,-6.22173 -5.15086,-10.56083 0.7477,-2.16932 2.30392,-3.83066 4.21475,-4.76264 1.91084,-0.93197 4.17809,-1.13547 6.34787,-0.3891 l 86.41163,29.75391 5.40905,-15.70902 -96.88564,-33.3604 c -4.33954,-1.49497 -6.64494,-6.22173 -5.15087,-10.56083 0.74771,-2.16932 2.30393,-3.83066 4.21476,-4.76264 1.91084,-0.93197 4.17809,-1.13547 6.34787,-0.3891 l 96.88564,33.3604 5.40995,-15.70945 -86.41296,-29.75437 c -4.33954,-1.49497 -6.64494,-6.22173 -5.15086,-10.56083 0.7477,-2.16932 2.30392,-3.83066 4.21475,-4.76264 1.91084,-0.93197 4.17809,-1.13547 6.34787,-0.3891 l 86.41297,29.75437 5.40861,-15.70991 -96.88564,-33.36041 c -4.33954,-1.49497 -6.64494,-6.22173 -5.15087,-10.56083 0.74771,-2.16932 2.30393,-3.83066 4.21476,-4.76263 1.91084,-0.93198 4.17809,-1.13547 6.34787,-0.38911 l 96.88564,33.36041 5.40995,-15.70946 -86.41252,-29.75347 c -4.33954,-1.49497 -6.64494,-6.22173 -5.15087,-10.56083 0.74771,-2.16932 2.30303,-3.83022 4.21476,-4.76263 1.91084,-0.93198 4.17809,-1.13547 6.34787,-0.38911 l 86.41253,29.75347 5.40904,-15.70901 -96.88697,-33.36086 c -4.33954,-1.49498 -6.64494,-6.22173 -5.15086,-10.56084 0.7477,-2.169319 2.30392,-3.830656 4.21475,-4.762633 1.91084,-0.931977 4.17809,-1.135471 6.34787,-0.389103 l 96.88698,33.360866 5.40951,-15.71035 z" />
  </g>
</svg>
