<svg x="0px"
     y="0px"
     width="500"
     height="300"
     xmlns="http://www.w3.org/2000/svg" version="1.1">
  <g id="paintChecker">
    <path
       d="m 367.38836,299.60218 c 19.48124,-0.002 21.69809,0.77151 39.918,-4.98976 13.235,-4.9021 25.176,-11.20389 39.618,-12.74381 18.45661,-2.2143 37.56945,-17.38605 16.275,-32.86064 -10.791,-7.38407 -25.601,-6.49278 -38.173,-5.94564 -9.01,0.39213 -28.978,2.72555 -30.354,-10.2434 -1.232,-11.59049 12.92,-15.32912 21.033,-19.89631 24.312,-13.69047 1.885,-36.24865 -13.902,-45.01026 -9.067,-5.02851 -0.741,-11.8433 6.829,-11.8433 6.97,0 14.002,0.88853 20.931,1.52609 14.799,1.35908 30.121,3.25884 44.961,1.37384 16.887,-2.14242 35.429,-16.2324 21.282,-32.85787 -14.938,-17.55827 -52.895,-5.43725 -71.96,-2.1701 -15.581,2.67111 -51.968,5.25088 -30.303,-18.93765 8.71,-9.72764 7.374,-20.63443 2.195,-31.495093 -5.882,-12.32124 16.125,-10.639225 21.489,-12.062894 4.143,-1.098891 8.472,-6.397744 9.507,-9.86142 2.74,-9.216479 6.059,-11.657845 13.521,-18.517843 7.167,-6.597962 19.413,-1.467034 27.921,-6.602576 6.871,-4.142756 11.99122,-19.209636 -4.15697,-23.12372 C 455.55253,1.31052 445.35429,-0.21347 402.46971,0.053963 338.41666,-0.16313 64.05339,0.344954 0,0.344954 L 0,300 Z m 94.029,-280.876086 c -14.018,-3.851195 -28.573,-2.441366 -42.994,-2.880553 -6.819,-0.21129 -6.84,-9.995207 0,-9.784839 15.385,0.478862 30.856,-0.873762 45.821,3.234855 6.536,1.796425 3.749,11.236188 -2.827,9.430537 z m 20.863,122.886686 c -7.431,-7.83525 -17.983,-9.05778 -28.039,-4.73972 -6.157,2.64712 -11.548,-5.78601 -5.349,-8.44697 14.183,-6.09512 30.173,-5.03498 40.891,6.26395 4.479,4.72957 -2.993,11.68091 -7.503,6.92274 z m -73.069,57.72087 c -2.542,-4.51921 -6.302,-7.94044 -10.444,-11.24173 -2.189,-1.7466 -1.932,-5.13646 0,-6.91812 2.154,-1.98465 5.313,-1.74107 7.498,0 4.77,3.80598 9.171,8.00963 12.091,13.21991 3.148,5.59226 -5.996,10.54142 -9.145,4.93994 z m 47.722,67.88122 c -3.479,-4.81353 -8.409,-7.25028 -14.648,-7.36192 -6.83,-0.12179 -6.841,-9.90663 0,-9.78484 10.107,0.17623 18.222,4.47676 23.793,12.20683 3.805,5.27394 -5.385,10.1659 -9.145,4.93993 z" />
  </g>
</svg>
