<?xml version="1.0" encoding="UTF-8" standalone="no"?>
<svg
   xmlns:dc="http://purl.org/dc/elements/1.1/"
   xmlns:cc="http://creativecommons.org/ns#"
   xmlns:rdf="http://www.w3.org/1999/02/22-rdf-syntax-ns#"
   xmlns:svg="http://www.w3.org/2000/svg"
   xmlns="http://www.w3.org/2000/svg"
   xmlns:sodipodi="http://sodipodi.sourceforge.net/DTD/sodipodi-0.dtd"
   xmlns:inkscape="http://www.inkscape.org/namespaces/inkscape"
   inkscape:version="1.0 (4035a4fb49, 2020-05-01)"
   sodipodi:docname="file.svg"
   id="svg5855"
   version="1.1"
   viewBox="0 0 3.9687519 4.6729722"
   height="4.6729722mm"
   width="3.9687519mm">
  <defs
     id="defs5849" />
  <sodipodi:namedview
     fit-margin-bottom="0"
     fit-margin-right="0"
     fit-margin-left="0"
     fit-margin-top="0"
     inkscape:window-maximized="1"
     inkscape:window-y="0"
     inkscape:window-x="0"
     inkscape:window-height="1080"
     inkscape:window-width="1920"
     inkscape:snap-grids="false"
     showgrid="true"
     inkscape:document-rotation="0"
     inkscape:current-layer="layer1"
     inkscape:document-units="mm"
     inkscape:cy="1.4996539"
     inkscape:cx="4.9876853"
     inkscape:zoom="15.839192"
     inkscape:pageshadow="2"
     inkscape:pageopacity="0.0"
     borderopacity="1.0"
     bordercolor="#666666"
     pagecolor="#ffffff"
     id="base">
    <inkscape:grid
       originy="-122.01181"
       originx="-100.40009"
       id="grid6431"
       type="xygrid" />
  </sodipodi:namedview>
  <metadata
     id="metadata5852">
    <rdf:RDF>
      <cc:Work
         rdf:about="">
        <dc:format>image/svg+xml</dc:format>
        <dc:type
           rdf:resource="http://purl.org/dc/dcmitype/StillImage" />
        <dc:title></dc:title>
      </cc:Work>
    </rdf:RDF>
  </metadata>
  <g
     transform="translate(-100.40009,-122.0118)"
     id="layer1"
     inkscape:groupmode="layer"
     inkscape:label="Layer 1">
    <path
       sodipodi:nodetypes="scccssssss"
       d="m 100.57928,122.09005 h 2.71254 c 0.0904,0 -0.0904,0.90418 0,0.9946 0.0904,0.0904 0.9946,-0.0904 0.99911,-0.008 v 3.42894 c 0,0.0561 -0.0452,0.10127 -0.10127,0.10127 h -3.61038 c -0.0561,0 -0.10127,-0.0451 -0.10127,-0.10127 V 122.191 c 0,-0.0561 0.0452,-0.10128 0.10127,-0.10128 z"
       style="fill:#ee1e10;fill-opacity:1;fill-rule:evenodd;stroke:#000000;stroke-width:0.155832;stroke-linecap:round;stroke-miterlimit:4;stroke-dasharray:none;stroke-opacity:1"
       id="rect5859" />
    <path
       sodipodi:nodetypes="ccc"
       id="path6433"
       d="m 103.29182,122.09005 v 0 l 0.9946,0.9946"
       style="fill:#000000;fill-opacity:1;stroke:#000000;stroke-width:0.158908;stroke-linecap:butt;stroke-linejoin:miter;stroke-miterlimit:4;stroke-dasharray:none;stroke-opacity:1" />
    <path
       id="path6435"
       d="m 101.03137,123.89841 h 2.71254"
       style="fill:none;stroke:#000000;stroke-width:0.164485;stroke-linecap:round;stroke-linejoin:miter;stroke-miterlimit:4;stroke-dasharray:none;stroke-opacity:1" />
    <path
       style="fill:none;stroke:#000000;stroke-width:0.164486;stroke-linecap:round;stroke-linejoin:miter;stroke-miterlimit:4;stroke-dasharray:none;stroke-opacity:1"
       d="m 101.03137,124.53133 h 2.71254"
       id="path6435-6" />
    <path
       style="fill:none;stroke:#000000;stroke-width:0.164486;stroke-linecap:round;stroke-linejoin:miter;stroke-miterlimit:4;stroke-dasharray:none;stroke-opacity:1"
       d="m 101.03137,125.07384 h 2.71254"
       id="path6435-7" />
    <path
       style="fill:none;stroke:#000000;stroke-width:0.164486;stroke-linecap:round;stroke-linejoin:miter;stroke-miterlimit:4;stroke-dasharray:none;stroke-opacity:1"
       d="m 101.03137,125.61635 h 2.71254"
       id="path6435-5" />
    <path
       id="path6484"
       d="m 103.37344,123.03657 c -0.0225,-0.002 -0.0263,-0.003 -0.0276,-0.008 -0.003,-0.01 -0.005,-0.0511 -0.005,-0.0922 0,-0.0713 0.005,-0.15653 0.0195,-0.31135 0.004,-0.0426 0.0108,-0.11749 0.0152,-0.16637 0.005,-0.0489 0.009,-0.10538 0.0108,-0.12556 0.002,-0.0202 0.003,-0.0367 0.004,-0.0367 5e-4,0 0.15566,0.15526 0.34453,0.34502 0.30316,0.30459 0.34282,0.34514 0.3384,0.34607 -0.002,5e-4 -0.0184,0.002 -0.0348,0.004 -0.0288,0.002 -0.10709,0.01 -0.23863,0.0226 -0.1284,0.0127 -0.20571,0.019 -0.27874,0.0229 -0.0451,0.002 -0.12159,0.002 -0.14708,-1.8e-4 z"
       style="fill:#0c46ff;fill-opacity:1;fill-rule:evenodd;stroke:#000000;stroke-width:0.00362382;stroke-linecap:round;stroke-miterlimit:4;stroke-dasharray:none;stroke-opacity:1" />
  </g>
</svg>
