<?xml version="1.0" encoding="utf-8"?>
<!-- Generator: Adobe Illustrator 14.0.0, SVG Export Plug-In . SVG Version: 6.00 Build 43363)  -->
<!DOCTYPE svg PUBLIC "-//W3C//DTD SVG 1.1//EN" "http://www.w3.org/Graphics/SVG/1.1/DTD/svg11.dtd">
<svg version="1.1" id="Layer_1" xmlns="http://www.w3.org/2000/svg" xmlns:xlink="http://www.w3.org/1999/xlink" x="0px" y="0px"
	 width="150.151px" height="50px" viewBox="0 0 150.151 50" enable-background="new 0 0 150.151 50" xml:space="preserve">
<polygon fill="#BE2026" points="0,0 0,50 90.478,50 48.375,0 "/>
<polygon fill="#2A348D" points="48.375,0 150.151,0 150.151,50 90.478,50 "/>
<rect x="27.604" y="6.979" fill="none" width="118.444" height="44.466"/>
<text transform="matrix(1 0 0 1 27.603 36.3262)"><tspan x="0" y="0" fill="#4A99D4" font-family="'Futura-Medium'" font-size="35.5718">p   tch</tspan><tspan x="100.444" y="0" fill="#3F63AE" font-family="'DIN-MediumAlternate'" font-size="35.5718"> </tspan></text>
<path fill="#4A99D4" d="M69.367,26.822c0,0.693-0.368,1.254-0.822,1.254H57.962c-0.454,0-0.822-0.561-0.822-1.254l0,0
	c0-0.691,0.368-1.251,0.822-1.251h10.583C68.999,25.571,69.367,26.131,69.367,26.822L69.367,26.822z"/>
<path id="path3109-9-4_6_" inkscape:connector-curvature="0" fill="#FFFFFF" d="M61.064,16.436c0,0-6.021,11.748-7.045,12.345
	c-0.93,0.543-2.526,0.389-2.846,1.398c-0.655,2.072,1.981,2.771,1.981,2.771s-0.111,2.016,1.221,1.867
	c2.319-0.258,1.036-1.365,1.647-3.184l0,0c1.159-3.451,1.461-4.598,6.785-12.831c4.503,6.204,7.845,11.422,8.193,12.922
	c0.57,2.449-0.051,3.619,1.688,3.924c2.092,0.367,3.211-2.941,3.211-2.941s2.713,0.088,2.356-1.904
	c-1.486-3.314-2.476-0.994-4.162-1.029c-0.979-0.021-6.693-7.985-11.364-14.954c-0.876-1.435-0.646-2.394-0.692-2.665
	c-0.235-1.366-0.84-3.768-2.376-3.447c-1.942,0.403-0.821,3.227-0.821,3.227s-4.162-1.475-3.503,2.501
	c0.515,3.103,3.546-0.023,4.961,1.241C60.299,15.678,60.82,16.167,61.064,16.436z"/>
</svg>
