<?xml version="1.0" encoding="UTF-8" standalone="no"?>
<!-- Generator: Adobe Illustrator 14.0.0, SVG Export Plug-In . SVG Version: 6.00 Build 43363)  -->

<svg
   xmlns:dc="http://purl.org/dc/elements/1.1/"
   xmlns:cc="http://creativecommons.org/ns#"
   xmlns:rdf="http://www.w3.org/1999/02/22-rdf-syntax-ns#"
   xmlns:svg="http://www.w3.org/2000/svg"
   xmlns="http://www.w3.org/2000/svg"
   xmlns:sodipodi="http://sodipodi.sourceforge.net/DTD/sodipodi-0.dtd"
   xmlns:inkscape="http://www.inkscape.org/namespaces/inkscape"
   version="1.1"
   id="Layer_1"
   x="0px"
   y="0px"
   width="501.36157"
   height="488.2699"
   viewBox="0 0 501.36157 488.2699"
   enable-background="new 0 0 784 780.078"
   xml:space="preserve"
   inkscape:version="0.48.3.1 r9886"
   sodipodi:docname="pyret-logo.svg"><metadata
   id="metadata3139"><rdf:RDF><cc:Work
       rdf:about=""><dc:format>image/svg+xml</dc:format><dc:type
         rdf:resource="http://purl.org/dc/dcmitype/StillImage" /></cc:Work></rdf:RDF></metadata><defs
   id="defs3137"><clipPath
     clipPathUnits="userSpaceOnUse"
     id="clipPath4092"><rect
       style="fill:#1a1a1a;fill-opacity:0;stroke:#ffffff;stroke-width:6;stroke-linecap:round;stroke-linejoin:round;stroke-miterlimit:4;stroke-opacity:0;stroke-dasharray:none"
       id="rect4094"
       width="644.11371"
       height="618.01953"
       x="103.00326"
       y="54.93507" /></clipPath><clipPath
     clipPathUnits="userSpaceOnUse"
     id="clipPath4096"><rect
       style="fill:#1a1a1a;fill-opacity:0;stroke:#ffffff;stroke-width:6;stroke-linecap:round;stroke-linejoin:round;stroke-miterlimit:4;stroke-opacity:0;stroke-dasharray:none"
       id="rect4098"
       width="644.11371"
       height="618.01953"
       x="103.00326"
       y="54.93507" /></clipPath><clipPath
     clipPathUnits="userSpaceOnUse"
     id="clipPath4100"><rect
       style="fill:#1a1a1a;fill-opacity:0;stroke:#ffffff;stroke-width:6;stroke-linecap:round;stroke-linejoin:round;stroke-miterlimit:4;stroke-opacity:0;stroke-dasharray:none"
       id="rect4102"
       width="644.11371"
       height="618.01953"
       x="103.00326"
       y="54.93507" /></clipPath><clipPath
     clipPathUnits="userSpaceOnUse"
     id="clipPath4104"><rect
       style="fill:#1a1a1a;fill-opacity:0;stroke:#ffffff;stroke-width:6;stroke-linecap:round;stroke-linejoin:round;stroke-miterlimit:4;stroke-opacity:0;stroke-dasharray:none"
       id="rect4106"
       width="644.11371"
       height="618.01953"
       x="103.00326"
       y="54.93507" /></clipPath><clipPath
     clipPathUnits="userSpaceOnUse"
     id="clipPath4108"><rect
       style="fill:#1a1a1a;fill-opacity:0;stroke:#ffffff;stroke-width:6;stroke-linecap:round;stroke-linejoin:round;stroke-miterlimit:4;stroke-opacity:0;stroke-dasharray:none"
       id="rect4110"
       width="644.11371"
       height="618.01953"
       x="103.00326"
       y="54.93507" /></clipPath><clipPath
     clipPathUnits="userSpaceOnUse"
     id="clipPath4112"><rect
       style="fill:#1a1a1a;fill-opacity:0;stroke:#ffffff;stroke-width:6;stroke-linecap:round;stroke-linejoin:round;stroke-miterlimit:4;stroke-opacity:0;stroke-dasharray:none"
       id="rect4114"
       width="644.11371"
       height="618.01953"
       x="103.00326"
       y="54.93507" /></clipPath><clipPath
     clipPathUnits="userSpaceOnUse"
     id="clipPath4116"><rect
       style="fill:#1a1a1a;fill-opacity:0;stroke:#ffffff;stroke-width:6;stroke-linecap:round;stroke-linejoin:round;stroke-miterlimit:4;stroke-opacity:0;stroke-dasharray:none"
       id="rect4118"
       width="644.11371"
       height="618.01953"
       x="103.00326"
       y="54.93507" /></clipPath><clipPath
     clipPathUnits="userSpaceOnUse"
     id="clipPath4120"><rect
       style="fill:#1a1a1a;fill-opacity:0;stroke:#ffffff;stroke-width:6;stroke-linecap:round;stroke-linejoin:round;stroke-miterlimit:4;stroke-opacity:0;stroke-dasharray:none"
       id="rect4122"
       width="644.11371"
       height="618.01953"
       x="103.00326"
       y="54.93507" /></clipPath><clipPath
     clipPathUnits="userSpaceOnUse"
     id="clipPath4124"><rect
       style="fill:#1a1a1a;fill-opacity:0;stroke:#ffffff;stroke-width:6;stroke-linecap:round;stroke-linejoin:round;stroke-miterlimit:4;stroke-opacity:0;stroke-dasharray:none"
       id="rect4126"
       width="644.11371"
       height="618.01953"
       x="103.00326"
       y="54.93507" /></clipPath><clipPath
     clipPathUnits="userSpaceOnUse"
     id="clipPath4128"><rect
       style="fill:#1a1a1a;fill-opacity:0;stroke:#ffffff;stroke-width:6;stroke-linecap:round;stroke-linejoin:round;stroke-miterlimit:4;stroke-opacity:0;stroke-dasharray:none"
       id="rect4130"
       width="644.11371"
       height="618.01953"
       x="103.00326"
       y="54.93507" /></clipPath></defs><sodipodi:namedview
   pagecolor="#ffffff"
   bordercolor="#666666"
   borderopacity="1"
   objecttolerance="10"
   gridtolerance="10"
   guidetolerance="10"
   inkscape:pageopacity="0"
   inkscape:pageshadow="2"
   inkscape:window-width="1366"
   inkscape:window-height="738"
   id="namedview3135"
   showgrid="false"
   inkscape:zoom="0.72813231"
   inkscape:cx="-99.389155"
   inkscape:cy="305.83955"
   inkscape:window-x="0"
   inkscape:window-y="0"
   inkscape:window-maximized="1"
   inkscape:current-layer="Layer_1"
   fit-margin-top="0"
   fit-margin-left="0"
   fit-margin-right="0"
   fit-margin-bottom="0" />
<path
   d="m 274.683,230.5 c 44.806,32.322 266.828,285.788 276.421,319.032 9.593,33.242 -0.866,49.114 28.375,53.248 35.173,4.973 36.099,-31.896 36.099,-31.896 0,0 63.539,-6.842 57.539,-33.842 -25,-45 -41.632,-13.512 -70,-14 -28.368,-0.488 -292.877,-320.543 -297.232,-341 -3.947,-18.542 -14.115,-51.116 -39.957,-46.78 -32.672,5.482 -13.811,43.78 -13.811,43.78 0,0 -70,-20 -58.908,33.931 8.658,42.101 57.692,0.371 81.474,17.527 z"
   id="path3107"
   clip-path="url(#clipPath4128)"
   mask="none"
   inkscape:connector-curvature="0"
   style="fill:#ffffff;stroke:#000000;stroke-width:20"
   transform="translate(-182.08008,-124.90455)" />
<path
   d="m 293.645,557.69 c 19.505,-46.82 18.228,-45.057 107.784,-156.783 l -37.765,-26.979 c 0,0 -86.479,136.914 -103.722,145.029 -15.629,7.357 -42.466,5.293 -47.843,18.99 -11.025,28.1 33.316,37.609 33.316,37.609 0,0 -1.874,27.332 20.534,25.318 39.009,-3.508 17.42,-18.518 27.696,-43.184 z"
   id="path3109"
   clip-path="url(#clipPath4124)"
   inkscape:connector-curvature="0"
   style="fill:#ffffff;stroke:#000000;stroke-width:20"
   transform="translate(-182.08008,-124.90455)" />
<path
   d="m 443.725,312.358 c 19.539,13.218 68.23,27.914 68.23,27.914"
   id="path3111"
   clip-path="url(#clipPath4120)"
   inkscape:connector-curvature="0"
   style="fill:none;stroke:#231f20;stroke-width:5"
   transform="translate(-182.08008,-124.90455)" />
<path
   d="M 372.17,248.434"
   id="path3113"
   clip-path="url(#clipPath4116)"
   inkscape:connector-curvature="0"
   style="fill:none;stroke:#231f20;stroke-width:5"
   transform="translate(-182.08008,-124.90455)" />
<path
   d="M 363.396,390.612"
   id="path3115"
   clip-path="url(#clipPath4112)"
   inkscape:connector-curvature="0"
   style="fill:#ff0019;stroke:#000000;stroke-width:20"
   transform="translate(-182.08008,-124.90455)" />
<path
   d="m 414.069,498.097 c 41.811,-0.025 67.441,-23.96 69.762,-35.31 2.321,-11.352 0.165,-42.827 3.328,-64.273 3.163,-21.443 35.095,-16.357 34.852,-49.933 -0.116,-16.1 -1.076,-98.237 -108.322,-98.823 h 0.76 c -107.245,0.586 -107.034,82.775 -108.322,98.823 -2.976,37.07 34.553,34.737 37.715,56.181 3.163,21.446 -0.346,46.674 1.977,58.025 2.319,11.35 26.44,35.285 68.25,35.31 l 0,0 z"
   id="path3117"
   clip-path="url(#clipPath4108)"
   inkscape:connector-curvature="0"
   style="fill:#cc0001;stroke:#000000;stroke-width:20"
   transform="translate(-182.08008,-124.90455)" />
<circle
   cx="371.81201"
   cy="362.33801"
   r="19.819"
   id="circle3119"
   clip-path="url(#clipPath4104)"
   sodipodi:cx="371.81201"
   sodipodi:cy="362.33801"
   sodipodi:rx="19.819"
   sodipodi:ry="19.819"
   style="stroke:#000000;stroke-width:4"
   transform="translate(-182.08008,-124.90455)" />
<path
   d="m 520.67272,347.27107 c -0.74569,28.09367 -28.92018,39.12214 -28.92018,39.12214 C 487.1174,390.34267 462.7,377.678 440.023,362.338 c -28.839,-19.509 -78.746,-99.237 -78.746,-99.237 0,0 -1.81287,-11.83851 53.28513,-13.44851 55.096,-1.61 83.92618,34.24869 88.17618,41.25569 4.252,7.008 15.23966,23.68902 17.93441,56.36289 z"
   id="path3121"
   inkscape:connector-curvature="0"
   style="fill:#1f1180;stroke:#000000;stroke-width:20"
   sodipodi:nodetypes="ccccscc"
   clip-path="url(#clipPath4100)"
   transform="translate(-182.08008,-124.90455)" />
<path
   d="m 414.069,331.455 c 0,0 -8.471,60.977 26.477,58.651 13.105,-0.872 37.981,-12.124 42.635,-16.032 3.791,-3.183 -9.418,-35.373 -28.898,-44.792 -20.376,-9.852 -40.214,2.174 -40.214,2.173"
   id="path3123"
   clip-path="url(#clipPath4096)"
   inkscape:connector-curvature="0"
   style="stroke:#000000;stroke-width:20"
   transform="translate(-182.08008,-124.90455)" />
<g
   id="g3125"
   clip-path="url(#clipPath4092)"
   transform="translate(-182.08008,-124.90455)">
	<path
   d="m 379.054,446.319 c 0,0 22.375,12.583 39.75,12.583 17.45,0 38.275,-13.583 38.275,-13.583"
   id="path3127"
   inkscape:connector-curvature="0"
   style="fill:none;stroke:#020202;stroke-width:7;stroke-linecap:round" />
	
		<line
   x1="391.742"
   y1="441.069"
   x2="391.742"
   y2="462.569"
   id="line3129"
   style="fill:none;stroke:#020202;stroke-width:7;stroke-linecap:round" />
	
		<line
   x1="418.80399"
   y1="445.069"
   x2="418.80399"
   y2="466.569"
   id="line3131"
   style="fill:none;stroke:#020202;stroke-width:7;stroke-linecap:round" />
	
		<line
   x1="445.86499"
   y1="441.069"
   x2="445.86499"
   y2="462.569"
   id="line3133"
   style="fill:none;stroke:#020202;stroke-width:7;stroke-linecap:round" />
</g>
</svg>