<?xml version="1.0" encoding="UTF-8" standalone="no"?>
<!-- Created with Inkscape (http://www.inkscape.org/) -->

<svg
   xmlns:dc="http://purl.org/dc/elements/1.1/"
   xmlns:cc="http://creativecommons.org/ns#"
   xmlns:rdf="http://www.w3.org/1999/02/22-rdf-syntax-ns#"
   xmlns:svg="http://www.w3.org/2000/svg"
   xmlns="http://www.w3.org/2000/svg"
   xmlns:sodipodi="http://sodipodi.sourceforge.net/DTD/sodipodi-0.dtd"
   xmlns:inkscape="http://www.inkscape.org/namespaces/inkscape"
   width="750"
   height="250"
   id="svg3160"
   version="1.1"
   inkscape:version="0.48.3.1 r9886"
   sodipodi:docname="pyret-banner.svg">
  <defs
     id="defs3162" />
  <sodipodi:namedview
     id="base"
     pagecolor="#ffffff"
     bordercolor="#666666"
     borderopacity="1.0"
     inkscape:pageopacity="0.0"
     inkscape:pageshadow="2"
     inkscape:zoom="1.4"
     inkscape:cx="381.54221"
     inkscape:cy="111.97621"
     inkscape:document-units="px"
     inkscape:current-layer="layer1"
     showgrid="false"
     showguides="true"
     inkscape:guide-bbox="true"
     inkscape:window-width="1366"
     inkscape:window-height="738"
     inkscape:window-x="0"
     inkscape:window-y="0"
     inkscape:window-maximized="1" />
  <metadata
     id="metadata3165">
    <rdf:RDF>
      <cc:Work
         rdf:about="">
        <dc:format>image/svg+xml</dc:format>
        <dc:type
           rdf:resource="http://purl.org/dc/dcmitype/StillImage" />
        <dc:title />
      </cc:Work>
    </rdf:RDF>
  </metadata>
  <g
     inkscape:label="Layer 1"
     inkscape:groupmode="layer"
     id="layer1"
     transform="translate(0,-802.36218)">
    <g
       id="g4060"
       transform="translate(36,0)">
      <path
         id="path3107"
         d="m 495.06025,861.29842 c 21.32127,15.38066 126.97205,135.99431 131.53695,151.81368 4.5649,15.8185 -0.41209,23.3713 13.50246,25.3385 16.73732,2.3664 17.17797,-15.178 17.17797,-15.178 0,0 30.2355,-3.2558 27.38035,-16.1039 -11.89643,-21.4136 -19.81089,-6.4298 -33.31001,-6.662 -13.49912,-0.2322 -139.36766,-152.53276 -141.44002,-162.26737 -1.87821,-8.82335 -6.71672,-24.32393 -19.01383,-22.26061 -15.54721,2.60865 -6.57206,20.83304 -6.57206,20.83304 0,0 -33.31001,-9.51715 -28.03181,16.14631 4.11998,20.03407 27.45316,0.17654 38.77,8.34035 z"
         inkscape:connector-curvature="0"
         style="fill:#ffffff;stroke:#000000;stroke-width:9.51714611" />
      <path
         id="path3109"
         d="m 504.08346,1016.9942 c 9.2816,-22.27966 8.67393,-21.44073 51.2898,-74.60636 l -17.97075,-12.83816 c 0,0 -41.15166,65.15153 -49.35687,69.01311 -7.43717,3.50091 -20.20776,2.51871 -22.76644,9.03651 -5.24633,13.3716 15.85366,17.8965 15.85366,17.8965 0,0 -0.89176,13.0062 9.77126,12.0478 18.56271,-1.6693 8.28943,-8.8119 13.17934,-20.5494 z"
         inkscape:connector-curvature="0"
         style="fill:#ffffff;stroke:#000000;stroke-width:9.51714611" />
      <path
         id="path3111"
         d="m 575.50012,900.25115 c 9.29778,6.28988 32.46775,13.28308 32.46775,13.28308"
         inkscape:connector-curvature="0"
         style="fill:none;stroke:#231f20;stroke-width:2.37928653" />
      <path
         id="path3113"
         d="M 541.45015,869.83245"
         inkscape:connector-curvature="0"
         style="fill:none;stroke:#231f20;stroke-width:2.37928653" />
      <path
         id="path3115"
         d="M 537.27498,937.48888"
         inkscape:connector-curvature="0"
         style="fill:#ff0019;stroke:#000000;stroke-width:9.51714611" />
      <path
         id="path3117"
         d="m 561.3881,988.63641 c 19.89607,-0.0119 32.09229,-11.40154 33.19675,-16.80252 1.10447,-5.40193 0.0785,-20.37954 1.58366,-30.58478 1.50513,-10.20381 16.70021,-7.7836 16.58458,-23.76099 -0.0552,-7.66129 -0.51203,-46.74679 -51.54582,-47.02564 h 0.36165 c -51.03331,0.27885 -50.9329,39.38909 -51.54581,47.02564 -1.41615,17.64003 16.44229,16.52986 17.94695,26.73415 1.50514,10.20523 -0.16464,22.21016 0.94077,27.61162 1.10352,5.40098 12.58167,16.79062 32.47727,16.80252 l 0,0 z"
         inkscape:connector-curvature="0"
         style="fill:#cc0001;stroke:#000000;stroke-width:9.51714611" />
      <circle
         d="m 391.63101,362.33801 c 0,10.94573 -8.87327,19.819 -19.819,19.819 -10.94573,0 -19.819,-8.87327 -19.819,-19.819 0,-10.94573 8.87327,-19.819 19.819,-19.819 10.94573,0 19.819,8.87327 19.819,19.819 z"
         id="circle3119"
         r="19.819"
         cy="362.33801"
         cx="371.81201"
         transform="matrix(0.47585732,0,0,0.47585732,364.35034,751.61331)"
         sodipodi:cx="371.81201"
         sodipodi:cy="362.33801"
         sodipodi:rx="19.819"
         sodipodi:ry="19.819"
         style="stroke:#000000;stroke-width:4" />
      <path
         sodipodi:nodetypes="ccccscc"
         style="fill:#1f1180;stroke:#000000;stroke-width:9.51714611"
         inkscape:connector-curvature="0"
         id="path3121"
         d="m 612.11625,916.86478 c -0.35485,13.36858 -13.76189,18.61656 -13.76189,18.61656 -2.20565,1.87938 -13.82485,-4.1472 -24.61586,-11.44685 -13.72325,-9.2835 -37.47186,-47.22264 -37.47186,-47.22264 0,0 -0.86267,-5.63345 25.35612,-6.39958 26.21782,-0.76613 39.93688,16.29749 41.95927,19.63183 2.02335,3.3348 7.25192,11.27259 8.53422,26.82068 z" />
      <path
         id="path3123"
         d="m 561.3881,909.3386 c 0,0 -4.03099,29.01634 12.59927,27.9095 6.23611,-0.41495 18.07354,-5.7693 20.28818,-7.62895 1.80397,-1.51465 -4.48163,-16.83249 -13.75133,-21.31459 -9.69607,-4.68815 -19.13612,1.03451 -19.13612,1.03404"
         inkscape:connector-curvature="0"
         style="stroke:#000000;stroke-width:9.51714611" />
      <g
         id="g3125"
         transform="matrix(0.47585732,0,0,0.47585732,364.35034,751.61331)">
        <path
           id="path3127"
           d="m 379.054,446.319 c 0,0 22.375,12.583 39.75,12.583 17.45,0 38.275,-13.583 38.275,-13.583"
           inkscape:connector-curvature="0"
           style="fill:none;stroke:#020202;stroke-width:7;stroke-linecap:round" />
        <line
           id="line3129"
           y2="462.569"
           x2="391.742"
           y1="441.069"
           x1="391.742"
           style="fill:none;stroke:#020202;stroke-width:7;stroke-linecap:round" />
        <line
           id="line3131"
           y2="466.569"
           x2="418.80399"
           y1="445.069"
           x1="418.80399"
           style="fill:none;stroke:#020202;stroke-width:7;stroke-linecap:round" />
        <line
           id="line3133"
           y2="462.569"
           x2="445.86499"
           y1="441.069"
           x1="445.86499"
           style="fill:none;stroke:#020202;stroke-width:7;stroke-linecap:round" />
      </g>
    </g>
    <flowRoot
       xml:space="preserve"
       id="flowRoot3266-5"
       style="font-size:40px;font-style:normal;font-variant:normal;font-weight:normal;font-stretch:normal;line-height:125%;letter-spacing:0px;word-spacing:0px;fill:#000000;fill-opacity:1;stroke:none;font-family:Nimbus Roman No9 L;-inkscape-font-specification:Nimbus Roman No9 L"
       transform="matrix(5.6254165,0,0,5.6257171,3602.2999,4797.9942)"><flowRegion
         id="flowRegion3268-0"><rect
           id="rect3270-6"
           width="133.62216"
           height="72.792557"
           x="-634.28571"
           y="-712.85712"
           style="font-style:normal;font-variant:normal;font-weight:normal;font-stretch:normal;font-family:Nimbus Roman No9 L;-inkscape-font-specification:Nimbus Roman No9 L" /></flowRegion><flowPara
         id="flowPara3272-6"
         style="font-style:italic;font-variant:normal;font-weight:bold;font-stretch:normal;font-family:Treasure Map Deadhand;-inkscape-font-specification:Treasure Map Deadhand Bold Italic">Pyret</flowPara></flowRoot>  </g>
</svg>
