<?xml version="1.0" encoding="UTF-8" standalone="no"?>
<!-- Generator: Adobe Illustrator 14.0.0, SVG Export Plug-In . SVG Version: 6.00 Build 43363)  -->

<svg
   xmlns:dc="http://purl.org/dc/elements/1.1/"
   xmlns:cc="http://creativecommons.org/ns#"
   xmlns:rdf="http://www.w3.org/1999/02/22-rdf-syntax-ns#"
   xmlns:svg="http://www.w3.org/2000/svg"
   xmlns="http://www.w3.org/2000/svg"
   xmlns:sodipodi="http://sodipodi.sourceforge.net/DTD/sodipodi-0.dtd"
   xmlns:inkscape="http://www.inkscape.org/namespaces/inkscape"
   version="1.1"
   id="Layer_1"
   x="0px"
   y="0px"
   width="784px"
   height="780.078px"
   viewBox="0 0 784 780.078"
   enable-background="new 0 0 784 780.078"
   xml:space="preserve"
   inkscape:version="0.48.3.1 r9886"
   sodipodi:docname="pyret logo final.svg"><metadata
   id="metadata3139"><rdf:RDF><cc:Work
       rdf:about=""><dc:format>image/svg+xml</dc:format><dc:type
         rdf:resource="http://purl.org/dc/dcmitype/StillImage" /></cc:Work></rdf:RDF></metadata><defs
   id="defs3137" /><sodipodi:namedview
   pagecolor="#ffffff"
   bordercolor="#666666"
   borderopacity="1"
   objecttolerance="10"
   gridtolerance="10"
   guidetolerance="10"
   inkscape:pageopacity="0"
   inkscape:pageshadow="2"
   inkscape:window-width="1366"
   inkscape:window-height="738"
   id="namedview3135"
   showgrid="false"
   inkscape:zoom="0.72813231"
   inkscape:cx="324.40524"
   inkscape:cy="472.74311"
   inkscape:window-x="0"
   inkscape:window-y="0"
   inkscape:window-maximized="1"
   inkscape:current-layer="Layer_1" />
<path
   fill="#FFFFFF"
   stroke="#000000"
   stroke-width="20"
   d="M274.683,230.5c44.806,32.322,266.828,285.788,276.421,319.032  c9.593,33.242-0.866,49.114,28.375,53.248c35.173,4.973,36.099-31.896,36.099-31.896s63.539-6.842,57.539-33.842  c-25-45-41.632-13.512-70-14s-292.877-320.543-297.232-341c-3.947-18.542-14.115-51.116-39.957-46.78  c-32.672,5.482-13.811,43.78-13.811,43.78s-70-20-58.908,33.931C201.867,255.074,250.901,213.344,274.683,230.5z"
   id="path3107" />
<path
   fill="#FFFFFF"
   stroke="#000000"
   stroke-width="20"
   d="M293.645,557.69c19.505-46.82,18.228-45.057,107.784-156.783  l-37.765-26.979c0,0-86.479,136.914-103.722,145.029c-15.629,7.357-42.466,5.293-47.843,18.99  c-11.025,28.1,33.316,37.609,33.316,37.609s-1.874,27.332,20.534,25.318C304.958,597.366,283.369,582.356,293.645,557.69z"
   id="path3109" />
<path
   fill="none"
   stroke="#231F20"
   stroke-width="5"
   d="M443.725,312.358c19.539,13.218,68.23,27.914,68.23,27.914"
   id="path3111" />
<path
   fill="none"
   stroke="#231F20"
   stroke-width="5"
   d="M372.17,248.434"
   id="path3113" />
<path
   fill="#FF0019"
   stroke="#000000"
   stroke-width="20"
   d="M363.396,390.612"
   id="path3115" />
<path
   fill="#CC0001"
   stroke="#000000"
   stroke-width="20"
   d="M414.069,498.097c41.811-0.025,67.441-23.96,69.762-35.31  c2.321-11.352,0.165-42.827,3.328-64.273c3.163-21.443,35.095-16.357,34.852-49.933c-0.116-16.1-1.076-98.237-108.322-98.823h0.76  c-107.245,0.586-107.034,82.775-108.322,98.823c-2.976,37.07,34.553,34.737,37.715,56.181c3.163,21.446-0.346,46.674,1.977,58.025  C348.138,474.137,372.259,498.072,414.069,498.097L414.069,498.097z"
   id="path3117" />
<circle
   stroke="#000000"
   stroke-width="4"
   cx="371.812"
   cy="362.338"
   r="19.819"
   id="circle3119" />
<path
   d="m 520.67272,347.27107 c -0.74569,28.09367 -28.92018,39.12214 -28.92018,39.12214 C 487.1174,390.34267 462.7,377.678 440.023,362.338 c -28.839,-19.509 -78.746,-99.237 -78.746,-99.237 0,0 -1.81287,-11.83851 53.28513,-13.44851 55.096,-1.61 83.92618,34.24869 88.17618,41.25569 4.252,7.008 15.23966,23.68902 17.93441,56.36289 z"
   id="path3121"
   inkscape:connector-curvature="0"
   style="fill:#1f1180;stroke:#000000;stroke-width:20"
   sodipodi:nodetypes="ccccscc" />
<path
   stroke="#000000"
   stroke-width="20"
   d="M414.069,331.455c0,0-8.471,60.977,26.477,58.651  c13.105-0.872,37.981-12.124,42.635-16.032c3.791-3.183-9.418-35.373-28.898-44.792C433.907,319.43,414.069,331.456,414.069,331.455  "
   id="path3123" />
<g
   id="g3125">
	<path
   fill="none"
   stroke="#020202"
   stroke-width="7"
   stroke-linecap="round"
   d="M379.054,446.319c0,0,22.375,12.583,39.75,12.583   c17.45,0,38.275-13.583,38.275-13.583"
   id="path3127" />
	
		<line
   fill="none"
   stroke="#020202"
   stroke-width="7"
   stroke-linecap="round"
   x1="391.742"
   y1="441.069"
   x2="391.742"
   y2="462.569"
   id="line3129" />
	
		<line
   fill="none"
   stroke="#020202"
   stroke-width="7"
   stroke-linecap="round"
   x1="418.804"
   y1="445.069"
   x2="418.804"
   y2="466.569"
   id="line3131" />
	
		<line
   fill="none"
   stroke="#020202"
   stroke-width="7"
   stroke-linecap="round"
   x1="445.865"
   y1="441.069"
   x2="445.865"
   y2="462.569"
   id="line3133" />
</g>
</svg>