<?xml version="1.0" encoding="UTF-8" standalone="no"?>
<!-- Created with Inkscape (http://www.inkscape.org/) -->

<svg
   xmlns:dc="http://purl.org/dc/elements/1.1/"
   xmlns:cc="http://creativecommons.org/ns#"
   xmlns:rdf="http://www.w3.org/1999/02/22-rdf-syntax-ns#"
   xmlns:svg="http://www.w3.org/2000/svg"
   xmlns="http://www.w3.org/2000/svg"
   xmlns:sodipodi="http://sodipodi.sourceforge.net/DTD/sodipodi-0.dtd"
   xmlns:inkscape="http://www.inkscape.org/namespaces/inkscape"
   width="640.29132"
   height="616.1416"
   id="svg6502"
   version="1.1"
   inkscape:version="0.48.3.1 r9886"
   sodipodi:docname="pyret-spin.svg"
   inkscape:export-filename="/home/joe/Pictures/pyret-16.png"
   inkscape:export-xdpi="90"
   inkscape:export-ydpi="90">
  <defs
     id="defs6504" />
  <sodipodi:namedview
     id="base"
     pagecolor="#ffffff"
     bordercolor="#666666"
     borderopacity="1.0"
     inkscape:pageopacity="0.0"
     inkscape:pageshadow="2"
     inkscape:zoom="0.70710678"
     inkscape:cx="479.40714"
     inkscape:cy="330.36113"
     inkscape:document-units="px"
     inkscape:current-layer="g3371"
     showgrid="false"
     fit-margin-top="0"
     fit-margin-left="0"
     fit-margin-right="0"
     fit-margin-bottom="0"
     inkscape:window-width="1920"
     inkscape:window-height="1056"
     inkscape:window-x="0"
     inkscape:window-y="0"
     inkscape:window-maximized="1" />
  <metadata
     id="metadata6507">
    <rdf:RDF>
      <cc:Work
         rdf:about="">
        <dc:format>image/svg+xml</dc:format>
        <dc:type
           rdf:resource="http://purl.org/dc/dcmitype/StillImage" />
        <dc:title></dc:title>
      </cc:Work>
    </rdf:RDF>
  </metadata>
  <g
     inkscape:label="0"
     inkscape:groupmode="layer"
     id="layer1"
     transform="translate(-46.846665,-178.41528)"
     style="display:none">
    <g
       id="g3097">
      <path
         style="fill:#ffffff;stroke:#000000;stroke-width:20"
         inkscape:connector-curvature="0"
         d="m 221.91592,348.09274 c 44.806,32.322 266.82803,285.788 276.42103,319.032 9.593,33.242 -0.866,49.114 28.375,53.248 35.173,4.973 36.099,-31.896 36.099,-31.896 0,0 63.539,-6.842 57.539,-33.842 -25,-45 -41.632,-13.512 -70,-14 -28.368,-0.488 -292.87703,-320.54302 -297.23203,-341.00002 -3.947,-18.542 -14.115,-51.116 -39.957,-46.78 -32.672,5.482 -13.811,43.78 -13.811,43.78 0,0 -70,-20 -58.908,33.931 8.658,42.10102 57.692,0.371 81.474,17.52702 z"
         id="path3107-06-2" />
      <path
         style="fill:#ffffff;stroke:#000000;stroke-width:20"
         inkscape:connector-curvature="0"
         d="m 240.87792,675.28274 c 19.505,-46.82 18.228,-45.057 107.78403,-156.783 l -37.765,-26.979 c 0,0 -86.47903,136.914 -103.72203,145.029 -15.629,7.357 -42.466,5.293 -47.843,18.99 -11.025,28.1 33.316,37.609 33.316,37.609 0,0 -1.874,27.332 20.534,25.318 39.009,-3.508 17.42,-18.518 27.696,-43.184 z"
         id="path3109-9-4" />
    </g>
    <path
       id="path3111-7-0"
       d="m 400.72885,418.11398 c 23.7366,16.05765 82.888,33.91083 82.888,33.91083"
       inkscape:connector-curvature="0"
       style="fill:none;stroke:#231f20;stroke-width:6.07416105" />
    <path
       id="path3115-3-8"
       d="M 303.14245,513.17946"
       inkscape:connector-curvature="0"
       style="fill:#ff0019;stroke:#000000;stroke-width:24.29664421" />
    <path
       style="fill:#ee1e10;fill-opacity:1;stroke:#000000;stroke-width:20;stroke-miterlimit:4;stroke-dasharray:none"
       id="path3117-5-0"
       d="m 454.46495,527.63469 c 3.8425,-26.04965 41.6634,-24.72663 41.3682,-65.51584 -0.1409,-19.5588 -1.3071,-119.34147 -131.593,-120.05337 l 0.9232,0 c -130.28469,0.7119 -130.02836,100.55774 -131.59307,120.05337 -3.61534,45.03383 40.60267,42.03301 45.81737,65.33712 12.8562,61.80476 22.2917,115.8024 91.023,117.27086 66.7954,0.45766 73.0667,-55.45666 84.0543,-117.09214 z"
       inkscape:connector-curvature="0"
       sodipodi:nodetypes="cccccccc" />
    <circle
       id="circle3119-8-03"
       r="19.819"
       cy="362.33801"
       cx="371.81201"
       transform="matrix(1.2148322,0,0,1.2148322,-138.32261,38.651417)"
       sodipodi:cx="371.81201"
       sodipodi:cy="362.33801"
       sodipodi:rx="19.819"
       sodipodi:ry="19.819"
       style="stroke:#000000;stroke-width:4"
       d="m 391.63101,362.33801 c 0,10.94573 -8.87327,19.819 -19.819,19.819 -10.94573,0 -19.819,-8.87327 -19.819,-19.819 0,-10.94573 8.87327,-19.819 19.819,-19.819 10.94573,0 19.819,8.87327 19.819,19.819 z" />
    <path
       sodipodi:nodetypes="ccccscc"
       style="fill:#0c46ff;fill-opacity:1;stroke:#000000;stroke-width:20;stroke-miterlimit:4;stroke-dasharray:none"
       inkscape:connector-curvature="0"
       id="path3121-79-8"
       d="m 494.20735,460.52751 c -0.9059,34.12909 -35.1332,47.52683 -35.1332,47.52683 -5.6308,4.79793 -35.2939,-10.58752 -62.8426,-29.22304 -35.0346,-23.70016 -95.6633,-120.5563 -95.6633,-120.5563 0,0 -2.2023,-14.38181 64.7325,-16.3377 66.9324,-1.95588 101.9563,41.60643 107.1193,50.11876 5.1655,8.51354 18.5137,28.77817 21.7873,68.47145 z" />
    <path
       id="path3123-2-3"
       d="m 364.70175,441.31363 c 0,0 -10.2908,74.07683 32.1651,71.25113 15.9204,-1.05933 46.1406,-14.72863 51.7944,-19.47619 4.6054,-3.86681 -11.4413,-42.97226 -35.1062,-54.41477 -24.7534,-11.96852 -48.8533,2.64105 -48.8533,2.63983"
       inkscape:connector-curvature="0"
       style="stroke:#000000;stroke-width:24.29664421" />
    <g
       id="g3125-8-1"
       transform="matrix(1.2148322,0,0,1.2148322,-138.32261,38.651417)">
      <path
         id="path3127-79-3"
         d="m 379.054,446.319 c 0,0 22.375,12.583 39.75,12.583 17.45,0 38.275,-13.583 38.275,-13.583"
         inkscape:connector-curvature="0"
         style="fill:none;stroke:#020202;stroke-width:7;stroke-linecap:round" />
      <line
         id="line3129-8-6"
         y2="462.569"
         x2="391.742"
         y1="441.069"
         x1="391.742"
         style="fill:none;stroke:#020202;stroke-width:7;stroke-linecap:round" />
      <line
         id="line3131-2-7"
         y2="466.569"
         x2="418.80399"
         y1="445.069"
         x1="418.80399"
         style="fill:none;stroke:#020202;stroke-width:7;stroke-linecap:round" />
      <line
         id="line3133-1-0"
         y2="462.569"
         x2="445.86499"
         y1="441.069"
         x1="445.86499"
         style="fill:none;stroke:#020202;stroke-width:7;stroke-linecap:round" />
    </g>
  </g>
  <g
     style="display:none"
     transform="translate(-46.846665,-178.41528)"
     id="g3371"
     inkscape:groupmode="layer"
     inkscape:label="-22.5">
    <g
       id="g3373"
       transform="matrix(0.92756396,0.38420957,-0.38420957,0.92756396,214.50046,-110.74881)">
      <path
         id="path3375"
         d="m 221.91592,348.09274 c 44.806,32.322 266.82803,285.788 276.42103,319.032 9.593,33.242 -0.866,49.114 28.375,53.248 35.173,4.973 36.099,-31.896 36.099,-31.896 0,0 63.539,-6.842 57.539,-33.842 -25,-45 -41.632,-13.512 -70,-14 -28.368,-0.488 -292.87703,-320.54302 -297.23203,-341.00002 -3.947,-18.542 -14.115,-51.116 -39.957,-46.78 -32.672,5.482 -13.811,43.78 -13.811,43.78 0,0 -70,-20 -58.908,33.931 8.658,42.10102 57.692,0.371 81.474,17.52702 z"
         inkscape:connector-curvature="0"
         style="fill:#ffffff;stroke:#000000;stroke-width:20" />
      <path
         id="path3377"
         d="m 240.87792,675.28274 c 19.505,-46.82 18.228,-45.057 107.78403,-156.783 l -37.765,-26.979 c 0,0 -86.47903,136.914 -103.72203,145.029 -15.629,7.357 -42.466,5.293 -47.843,18.99 -11.025,28.1 33.316,37.609 33.316,37.609 0,0 -1.874,27.332 20.534,25.318 39.009,-3.508 17.42,-18.518 27.696,-43.184 z"
         inkscape:connector-curvature="0"
         style="fill:#ffffff;stroke:#000000;stroke-width:20" />
    </g>
    <path
       style="fill:none;stroke:#231f20;stroke-width:6.07416105"
       inkscape:connector-curvature="0"
       d="m 400.72885,418.11398 c 23.7366,16.05765 82.888,33.91083 82.888,33.91083"
       id="path3379" />
    <path
       style="fill:#ff0019;stroke:#000000;stroke-width:24.29664421"
       inkscape:connector-curvature="0"
       d="M 303.14245,513.17946"
       id="path3381" />
    <path
       sodipodi:nodetypes="cccccccc"
       inkscape:connector-curvature="0"
       d="m 454.46495,527.63469 c 3.8425,-26.04965 41.6634,-24.72663 41.3682,-65.51584 -0.1409,-19.5588 -1.3071,-119.34147 -131.593,-120.05337 l 0.9232,0 c -130.28469,0.7119 -130.02836,100.55774 -131.59307,120.05337 -3.61534,45.03383 40.60267,42.03301 45.81737,65.33712 12.8562,61.80476 22.2917,115.8024 91.023,117.27086 66.7954,0.45766 73.0667,-55.45666 84.0543,-117.09214 z"
       id="path3383"
       style="fill:#ee1e10;fill-opacity:1;stroke:#000000;stroke-width:20;stroke-miterlimit:4;stroke-dasharray:none" />
    <circle
       d="m 391.63101,362.33801 c 0,10.94573 -8.87327,19.819 -19.819,19.819 -10.94573,0 -19.819,-8.87327 -19.819,-19.819 0,-10.94573 8.87327,-19.819 19.819,-19.819 10.94573,0 19.819,8.87327 19.819,19.819 z"
       style="stroke:#000000;stroke-width:4"
       sodipodi:ry="19.819"
       sodipodi:rx="19.819"
       sodipodi:cy="362.33801"
       sodipodi:cx="371.81201"
       transform="matrix(1.2148322,0,0,1.2148322,-138.32261,38.651417)"
       cx="371.81201"
       cy="362.33801"
       r="19.819"
       id="circle3385" />
    <path
       d="m 494.20735,460.52751 c -0.9059,34.12909 -35.1332,47.52683 -35.1332,47.52683 -5.6308,4.79793 -35.2939,-10.58752 -62.8426,-29.22304 -35.0346,-23.70016 -95.6633,-120.5563 -95.6633,-120.5563 0,0 -2.2023,-14.38181 64.7325,-16.3377 66.9324,-1.95588 101.9563,41.60643 107.1193,50.11876 5.1655,8.51354 18.5137,28.77817 21.7873,68.47145 z"
       id="path3387"
       inkscape:connector-curvature="0"
       style="fill:#0c46ff;fill-opacity:1;stroke:#000000;stroke-width:20;stroke-miterlimit:4;stroke-dasharray:none"
       sodipodi:nodetypes="ccccscc" />
    <path
       style="stroke:#000000;stroke-width:24.29664421"
       inkscape:connector-curvature="0"
       d="m 364.70175,441.31363 c 0,0 -10.2908,74.07683 32.1651,71.25113 15.9204,-1.05933 46.1406,-14.72863 51.7944,-19.47619 4.6054,-3.86681 -11.4413,-42.97226 -35.1062,-54.41477 -24.7534,-11.96852 -48.8533,2.64105 -48.8533,2.63983"
       id="path3389" />
    <g
       transform="matrix(1.2148322,0,0,1.2148322,-138.32261,38.651417)"
       id="g3391">
      <path
         style="fill:none;stroke:#020202;stroke-width:7;stroke-linecap:round"
         inkscape:connector-curvature="0"
         d="m 379.054,446.319 c 0,0 22.375,12.583 39.75,12.583 17.45,0 38.275,-13.583 38.275,-13.583"
         id="path3393" />
      <line
         style="fill:none;stroke:#020202;stroke-width:7;stroke-linecap:round"
         x1="391.742"
         y1="441.069"
         x2="391.742"
         y2="462.569"
         id="line3395" />
      <line
         style="fill:none;stroke:#020202;stroke-width:7;stroke-linecap:round"
         x1="418.80399"
         y1="445.069"
         x2="418.80399"
         y2="466.569"
         id="line3397" />
      <line
         style="fill:none;stroke:#020202;stroke-width:7;stroke-linecap:round"
         x1="445.86499"
         y1="441.069"
         x2="445.86499"
         y2="462.569"
         id="line3399" />
    </g>
  </g>
  <g
     inkscape:label="-45"
     inkscape:groupmode="layer"
     id="g3431"
     transform="translate(-46.846665,-178.41528)"
     style="display:none">
    <g
       id="g3433"
       transform="matrix(0.70710678,0.70710678,-0.70710678,0.70710678,455.41145,-126.16471)">
      <path
         style="fill:#ffffff;stroke:#000000;stroke-width:20"
         inkscape:connector-curvature="0"
         d="m 221.91592,348.09274 c 44.806,32.322 266.82803,285.788 276.42103,319.032 9.593,33.242 -0.866,49.114 28.375,53.248 35.173,4.973 36.099,-31.896 36.099,-31.896 0,0 63.539,-6.842 57.539,-33.842 -25,-45 -41.632,-13.512 -70,-14 -28.368,-0.488 -292.87703,-320.54302 -297.23203,-341.00002 -3.947,-18.542 -14.115,-51.116 -39.957,-46.78 -32.672,5.482 -13.811,43.78 -13.811,43.78 0,0 -70,-20 -58.908,33.931 8.658,42.10102 57.692,0.371 81.474,17.52702 z"
         id="path3435" />
      <path
         style="fill:#ffffff;stroke:#000000;stroke-width:20"
         inkscape:connector-curvature="0"
         d="m 240.87792,675.28274 c 19.505,-46.82 18.228,-45.057 107.78403,-156.783 l -37.765,-26.979 c 0,0 -86.47903,136.914 -103.72203,145.029 -15.629,7.357 -42.466,5.293 -47.843,18.99 -11.025,28.1 33.316,37.609 33.316,37.609 0,0 -1.874,27.332 20.534,25.318 39.009,-3.508 17.42,-18.518 27.696,-43.184 z"
         id="path3437" />
    </g>
    <path
       id="path3439"
       d="m 400.72885,418.11398 c 23.7366,16.05765 82.888,33.91083 82.888,33.91083"
       inkscape:connector-curvature="0"
       style="fill:none;stroke:#231f20;stroke-width:6.07416105" />
    <path
       id="path3441"
       d="M 303.14245,513.17946"
       inkscape:connector-curvature="0"
       style="fill:#ff0019;stroke:#000000;stroke-width:24.29664421" />
    <path
       style="fill:#ee1e10;fill-opacity:1;stroke:#000000;stroke-width:20;stroke-miterlimit:4;stroke-dasharray:none"
       id="path3443"
       d="m 454.46495,527.63469 c 3.8425,-26.04965 41.6634,-24.72663 41.3682,-65.51584 -0.1409,-19.5588 -1.3071,-119.34147 -131.593,-120.05337 l 0.9232,0 c -130.28469,0.7119 -130.02836,100.55774 -131.59307,120.05337 -3.61534,45.03383 40.60267,42.03301 45.81737,65.33712 12.8562,61.80476 22.2917,115.8024 91.023,117.27086 66.7954,0.45766 73.0667,-55.45666 84.0543,-117.09214 z"
       inkscape:connector-curvature="0"
       sodipodi:nodetypes="cccccccc" />
    <circle
       id="circle3445"
       r="19.819"
       cy="362.33801"
       cx="371.81201"
       transform="matrix(1.2148322,0,0,1.2148322,-138.32261,38.651417)"
       sodipodi:cx="371.81201"
       sodipodi:cy="362.33801"
       sodipodi:rx="19.819"
       sodipodi:ry="19.819"
       style="stroke:#000000;stroke-width:4"
       d="m 391.63101,362.33801 c 0,10.94573 -8.87327,19.819 -19.819,19.819 -10.94573,0 -19.819,-8.87327 -19.819,-19.819 0,-10.94573 8.87327,-19.819 19.819,-19.819 10.94573,0 19.819,8.87327 19.819,19.819 z" />
    <path
       sodipodi:nodetypes="ccccscc"
       style="fill:#0c46ff;fill-opacity:1;stroke:#000000;stroke-width:20;stroke-miterlimit:4;stroke-dasharray:none"
       inkscape:connector-curvature="0"
       id="path3447"
       d="m 494.20735,460.52751 c -0.9059,34.12909 -35.1332,47.52683 -35.1332,47.52683 -5.6308,4.79793 -35.2939,-10.58752 -62.8426,-29.22304 -35.0346,-23.70016 -95.6633,-120.5563 -95.6633,-120.5563 0,0 -2.2023,-14.38181 64.7325,-16.3377 66.9324,-1.95588 101.9563,41.60643 107.1193,50.11876 5.1655,8.51354 18.5137,28.77817 21.7873,68.47145 z" />
    <path
       id="path3449"
       d="m 364.70175,441.31363 c 0,0 -10.2908,74.07683 32.1651,71.25113 15.9204,-1.05933 46.1406,-14.72863 51.7944,-19.47619 4.6054,-3.86681 -11.4413,-42.97226 -35.1062,-54.41477 -24.7534,-11.96852 -48.8533,2.64105 -48.8533,2.63983"
       inkscape:connector-curvature="0"
       style="stroke:#000000;stroke-width:24.29664421" />
    <g
       id="g3451"
       transform="matrix(1.2148322,0,0,1.2148322,-138.32261,38.651417)">
      <path
         id="path3453"
         d="m 379.054,446.319 c 0,0 22.375,12.583 39.75,12.583 17.45,0 38.275,-13.583 38.275,-13.583"
         inkscape:connector-curvature="0"
         style="fill:none;stroke:#020202;stroke-width:7;stroke-linecap:round" />
      <line
         id="line3455"
         y2="462.569"
         x2="391.742"
         y1="441.069"
         x1="391.742"
         style="fill:none;stroke:#020202;stroke-width:7;stroke-linecap:round" />
      <line
         id="line3457"
         y2="466.569"
         x2="418.80399"
         y1="445.069"
         x1="418.80399"
         style="fill:none;stroke:#020202;stroke-width:7;stroke-linecap:round" />
      <line
         id="line3459"
         y2="462.569"
         x2="445.86499"
         y1="441.069"
         x1="445.86499"
         style="fill:none;stroke:#020202;stroke-width:7;stroke-linecap:round" />
    </g>
  </g>
  <g
     inkscape:label="-67.5"
     inkscape:groupmode="layer"
     id="g3401"
     transform="translate(-46.846665,-178.41528)"
     style="display:none">
    <g
       id="g3403"
       transform="matrix(0.38268343,0.92387953,-0.92387953,0.38268343,684.18433,-50.658416)">
      <path
         style="fill:#ffffff;stroke:#000000;stroke-width:20"
         inkscape:connector-curvature="0"
         d="m 221.91592,348.09274 c 44.806,32.322 266.82803,285.788 276.42103,319.032 9.593,33.242 -0.866,49.114 28.375,53.248 35.173,4.973 36.099,-31.896 36.099,-31.896 0,0 63.539,-6.842 57.539,-33.842 -25,-45 -41.632,-13.512 -70,-14 -28.368,-0.488 -292.87703,-320.54302 -297.23203,-341.00002 -3.947,-18.542 -14.115,-51.116 -39.957,-46.78 -32.672,5.482 -13.811,43.78 -13.811,43.78 0,0 -70,-20 -58.908,33.931 8.658,42.10102 57.692,0.371 81.474,17.52702 z"
         id="path3405" />
      <path
         style="fill:#ffffff;stroke:#000000;stroke-width:20"
         inkscape:connector-curvature="0"
         d="m 240.87792,675.28274 c 19.505,-46.82 18.228,-45.057 107.78403,-156.783 l -37.765,-26.979 c 0,0 -86.47903,136.914 -103.72203,145.029 -15.629,7.357 -42.466,5.293 -47.843,18.99 -11.025,28.1 33.316,37.609 33.316,37.609 0,0 -1.874,27.332 20.534,25.318 39.009,-3.508 17.42,-18.518 27.696,-43.184 z"
         id="path3407" />
    </g>
    <path
       id="path3409"
       d="m 400.72885,418.11398 c 23.7366,16.05765 82.888,33.91083 82.888,33.91083"
       inkscape:connector-curvature="0"
       style="fill:none;stroke:#231f20;stroke-width:6.07416105" />
    <path
       id="path3411"
       d="M 303.14245,513.17946"
       inkscape:connector-curvature="0"
       style="fill:#ff0019;stroke:#000000;stroke-width:24.29664421" />
    <path
       style="fill:#ee1e10;fill-opacity:1;stroke:#000000;stroke-width:20;stroke-miterlimit:4;stroke-dasharray:none"
       id="path3413"
       d="m 454.46495,527.63469 c 3.8425,-26.04965 41.6634,-24.72663 41.3682,-65.51584 -0.1409,-19.5588 -1.3071,-119.34147 -131.593,-120.05337 l 0.9232,0 c -130.28469,0.7119 -130.02836,100.55774 -131.59307,120.05337 -3.61534,45.03383 40.60267,42.03301 45.81737,65.33712 12.8562,61.80476 22.2917,115.8024 91.023,117.27086 66.7954,0.45766 73.0667,-55.45666 84.0543,-117.09214 z"
       inkscape:connector-curvature="0"
       sodipodi:nodetypes="cccccccc" />
    <circle
       id="circle3415"
       r="19.819"
       cy="362.33801"
       cx="371.81201"
       transform="matrix(1.2148322,0,0,1.2148322,-138.32261,38.651417)"
       sodipodi:cx="371.81201"
       sodipodi:cy="362.33801"
       sodipodi:rx="19.819"
       sodipodi:ry="19.819"
       style="stroke:#000000;stroke-width:4"
       d="m 391.63101,362.33801 c 0,10.94573 -8.87327,19.819 -19.819,19.819 -10.94573,0 -19.819,-8.87327 -19.819,-19.819 0,-10.94573 8.87327,-19.819 19.819,-19.819 10.94573,0 19.819,8.87327 19.819,19.819 z" />
    <path
       sodipodi:nodetypes="ccccscc"
       style="fill:#0c46ff;fill-opacity:1;stroke:#000000;stroke-width:20;stroke-miterlimit:4;stroke-dasharray:none"
       inkscape:connector-curvature="0"
       id="path3417"
       d="m 494.20735,460.52751 c -0.9059,34.12909 -35.1332,47.52683 -35.1332,47.52683 -5.6308,4.79793 -35.2939,-10.58752 -62.8426,-29.22304 -35.0346,-23.70016 -95.6633,-120.5563 -95.6633,-120.5563 0,0 -2.2023,-14.38181 64.7325,-16.3377 66.9324,-1.95588 101.9563,41.60643 107.1193,50.11876 5.1655,8.51354 18.5137,28.77817 21.7873,68.47145 z" />
    <path
       id="path3419"
       d="m 364.70175,441.31363 c 0,0 -10.2908,74.07683 32.1651,71.25113 15.9204,-1.05933 46.1406,-14.72863 51.7944,-19.47619 4.6054,-3.86681 -11.4413,-42.97226 -35.1062,-54.41477 -24.7534,-11.96852 -48.8533,2.64105 -48.8533,2.63983"
       inkscape:connector-curvature="0"
       style="stroke:#000000;stroke-width:24.29664421" />
    <g
       id="g3421"
       transform="matrix(1.2148322,0,0,1.2148322,-138.32261,38.651417)">
      <path
         id="path3423"
         d="m 379.054,446.319 c 0,0 22.375,12.583 39.75,12.583 17.45,0 38.275,-13.583 38.275,-13.583"
         inkscape:connector-curvature="0"
         style="fill:none;stroke:#020202;stroke-width:7;stroke-linecap:round" />
      <line
         id="line3425"
         y2="462.569"
         x2="391.742"
         y1="441.069"
         x1="391.742"
         style="fill:none;stroke:#020202;stroke-width:7;stroke-linecap:round" />
      <line
         id="line3427"
         y2="466.569"
         x2="418.80399"
         y1="445.069"
         x1="418.80399"
         style="fill:none;stroke:#020202;stroke-width:7;stroke-linecap:round" />
      <line
         id="line3429"
         y2="462.569"
         x2="445.86499"
         y1="441.069"
         x1="445.86499"
         style="fill:none;stroke:#020202;stroke-width:7;stroke-linecap:round" />
    </g>
  </g>
  <g
     style="display:none"
     transform="translate(-46.846665,-178.41528)"
     id="g3461"
     inkscape:groupmode="layer"
     inkscape:label="-90">
    <g
       id="g3463"
       transform="matrix(0,1,-1,0,866.6479,106.64789)">
      <path
         id="path3465"
         d="m 221.91592,348.09274 c 44.806,32.322 266.82803,285.788 276.42103,319.032 9.593,33.242 -0.866,49.114 28.375,53.248 35.173,4.973 36.099,-31.896 36.099,-31.896 0,0 63.539,-6.842 57.539,-33.842 -25,-45 -41.632,-13.512 -70,-14 -28.368,-0.488 -292.87703,-320.54302 -297.23203,-341.00002 -3.947,-18.542 -14.115,-51.116 -39.957,-46.78 -32.672,5.482 -13.811,43.78 -13.811,43.78 0,0 -70,-20 -58.908,33.931 8.658,42.10102 57.692,0.371 81.474,17.52702 z"
         inkscape:connector-curvature="0"
         style="fill:#ffffff;stroke:#000000;stroke-width:20" />
      <path
         id="path3467"
         d="m 240.87792,675.28274 c 19.505,-46.82 18.228,-45.057 107.78403,-156.783 l -37.765,-26.979 c 0,0 -86.47903,136.914 -103.72203,145.029 -15.629,7.357 -42.466,5.293 -47.843,18.99 -11.025,28.1 33.316,37.609 33.316,37.609 0,0 -1.874,27.332 20.534,25.318 39.009,-3.508 17.42,-18.518 27.696,-43.184 z"
         inkscape:connector-curvature="0"
         style="fill:#ffffff;stroke:#000000;stroke-width:20" />
    </g>
    <path
       style="fill:none;stroke:#231f20;stroke-width:6.07416105"
       inkscape:connector-curvature="0"
       d="m 400.72885,418.11398 c 23.7366,16.05765 82.888,33.91083 82.888,33.91083"
       id="path3469" />
    <path
       style="fill:#ff0019;stroke:#000000;stroke-width:24.29664421"
       inkscape:connector-curvature="0"
       d="M 303.14245,513.17946"
       id="path3471" />
    <path
       sodipodi:nodetypes="cccccccc"
       inkscape:connector-curvature="0"
       d="m 454.46495,527.63469 c 3.8425,-26.04965 41.6634,-24.72663 41.3682,-65.51584 -0.1409,-19.5588 -1.3071,-119.34147 -131.593,-120.05337 l 0.9232,0 c -130.28469,0.7119 -130.02836,100.55774 -131.59307,120.05337 -3.61534,45.03383 40.60267,42.03301 45.81737,65.33712 12.8562,61.80476 22.2917,115.8024 91.023,117.27086 66.7954,0.45766 73.0667,-55.45666 84.0543,-117.09214 z"
       id="path3473"
       style="fill:#ee1e10;fill-opacity:1;stroke:#000000;stroke-width:20;stroke-miterlimit:4;stroke-dasharray:none" />
    <circle
       d="m 391.63101,362.33801 c 0,10.94573 -8.87327,19.819 -19.819,19.819 -10.94573,0 -19.819,-8.87327 -19.819,-19.819 0,-10.94573 8.87327,-19.819 19.819,-19.819 10.94573,0 19.819,8.87327 19.819,19.819 z"
       style="stroke:#000000;stroke-width:4"
       sodipodi:ry="19.819"
       sodipodi:rx="19.819"
       sodipodi:cy="362.33801"
       sodipodi:cx="371.81201"
       transform="matrix(1.2148322,0,0,1.2148322,-138.32261,38.651417)"
       cx="371.81201"
       cy="362.33801"
       r="19.819"
       id="circle3475" />
    <path
       d="m 494.20735,460.52751 c -0.9059,34.12909 -35.1332,47.52683 -35.1332,47.52683 -5.6308,4.79793 -35.2939,-10.58752 -62.8426,-29.22304 -35.0346,-23.70016 -95.6633,-120.5563 -95.6633,-120.5563 0,0 -2.2023,-14.38181 64.7325,-16.3377 66.9324,-1.95588 101.9563,41.60643 107.1193,50.11876 5.1655,8.51354 18.5137,28.77817 21.7873,68.47145 z"
       id="path3477"
       inkscape:connector-curvature="0"
       style="fill:#0c46ff;fill-opacity:1;stroke:#000000;stroke-width:20;stroke-miterlimit:4;stroke-dasharray:none"
       sodipodi:nodetypes="ccccscc" />
    <path
       style="stroke:#000000;stroke-width:24.29664421"
       inkscape:connector-curvature="0"
       d="m 364.70175,441.31363 c 0,0 -10.2908,74.07683 32.1651,71.25113 15.9204,-1.05933 46.1406,-14.72863 51.7944,-19.47619 4.6054,-3.86681 -11.4413,-42.97226 -35.1062,-54.41477 -24.7534,-11.96852 -48.8533,2.64105 -48.8533,2.63983"
       id="path3479" />
    <g
       transform="matrix(1.2148322,0,0,1.2148322,-138.32261,38.651417)"
       id="g3481">
      <path
         style="fill:none;stroke:#020202;stroke-width:7;stroke-linecap:round"
         inkscape:connector-curvature="0"
         d="m 379.054,446.319 c 0,0 22.375,12.583 39.75,12.583 17.45,0 38.275,-13.583 38.275,-13.583"
         id="path3483" />
      <line
         style="fill:none;stroke:#020202;stroke-width:7;stroke-linecap:round"
         x1="391.742"
         y1="441.069"
         x2="391.742"
         y2="462.569"
         id="line3485" />
      <line
         style="fill:none;stroke:#020202;stroke-width:7;stroke-linecap:round"
         x1="418.80399"
         y1="445.069"
         x2="418.80399"
         y2="466.569"
         id="line3487" />
      <line
         style="fill:none;stroke:#020202;stroke-width:7;stroke-linecap:round"
         x1="445.86499"
         y1="441.069"
         x2="445.86499"
         y2="462.569"
         id="line3489" />
    </g>
  </g>
  <g
     style="display:none"
     transform="translate(-46.846665,-178.41528)"
     id="g3341"
     inkscape:groupmode="layer"
     inkscape:label="-112.5">
    <g
       id="g3343"
       transform="matrix(-0.38268343,0.92387953,-0.92387953,-0.38268343,975.02374,321.80576)">
      <path
         id="path3345"
         d="m 221.91592,348.09274 c 44.806,32.322 266.82803,285.788 276.42103,319.032 9.593,33.242 -0.866,49.114 28.375,53.248 35.173,4.973 36.099,-31.896 36.099,-31.896 0,0 63.539,-6.842 57.539,-33.842 -25,-45 -41.632,-13.512 -70,-14 -28.368,-0.488 -292.87703,-320.54302 -297.23203,-341.00002 -3.947,-18.542 -14.115,-51.116 -39.957,-46.78 -32.672,5.482 -13.811,43.78 -13.811,43.78 0,0 -70,-20 -58.908,33.931 8.658,42.10102 57.692,0.371 81.474,17.52702 z"
         inkscape:connector-curvature="0"
         style="fill:#ffffff;stroke:#000000;stroke-width:20" />
      <path
         id="path3347"
         d="m 240.87792,675.28274 c 19.505,-46.82 18.228,-45.057 107.78403,-156.783 l -37.765,-26.979 c 0,0 -86.47903,136.914 -103.72203,145.029 -15.629,7.357 -42.466,5.293 -47.843,18.99 -11.025,28.1 33.316,37.609 33.316,37.609 0,0 -1.874,27.332 20.534,25.318 39.009,-3.508 17.42,-18.518 27.696,-43.184 z"
         inkscape:connector-curvature="0"
         style="fill:#ffffff;stroke:#000000;stroke-width:20" />
    </g>
    <path
       style="fill:none;stroke:#231f20;stroke-width:6.07416105"
       inkscape:connector-curvature="0"
       d="m 400.72885,418.11398 c 23.7366,16.05765 82.888,33.91083 82.888,33.91083"
       id="path3349" />
    <path
       style="fill:#ff0019;stroke:#000000;stroke-width:24.29664421"
       inkscape:connector-curvature="0"
       d="M 303.14245,513.17946"
       id="path3351" />
    <path
       sodipodi:nodetypes="cccccccc"
       inkscape:connector-curvature="0"
       d="m 454.46495,527.63469 c 3.8425,-26.04965 41.6634,-24.72663 41.3682,-65.51584 -0.1409,-19.5588 -1.3071,-119.34147 -131.593,-120.05337 l 0.9232,0 c -130.28469,0.7119 -130.02836,100.55774 -131.59307,120.05337 -3.61534,45.03383 40.60267,42.03301 45.81737,65.33712 12.8562,61.80476 22.2917,115.8024 91.023,117.27086 66.7954,0.45766 73.0667,-55.45666 84.0543,-117.09214 z"
       id="path3353"
       style="fill:#ee1e10;fill-opacity:1;stroke:#000000;stroke-width:20;stroke-miterlimit:4;stroke-dasharray:none" />
    <circle
       d="m 391.63101,362.33801 c 0,10.94573 -8.87327,19.819 -19.819,19.819 -10.94573,0 -19.819,-8.87327 -19.819,-19.819 0,-10.94573 8.87327,-19.819 19.819,-19.819 10.94573,0 19.819,8.87327 19.819,19.819 z"
       style="stroke:#000000;stroke-width:4"
       sodipodi:ry="19.819"
       sodipodi:rx="19.819"
       sodipodi:cy="362.33801"
       sodipodi:cx="371.81201"
       transform="matrix(1.2148322,0,0,1.2148322,-138.32261,38.651417)"
       cx="371.81201"
       cy="362.33801"
       r="19.819"
       id="circle3355" />
    <path
       d="m 494.20735,460.52751 c -0.9059,34.12909 -35.1332,47.52683 -35.1332,47.52683 -5.6308,4.79793 -35.2939,-10.58752 -62.8426,-29.22304 -35.0346,-23.70016 -95.6633,-120.5563 -95.6633,-120.5563 0,0 -2.2023,-14.38181 64.7325,-16.3377 66.9324,-1.95588 101.9563,41.60643 107.1193,50.11876 5.1655,8.51354 18.5137,28.77817 21.7873,68.47145 z"
       id="path3357"
       inkscape:connector-curvature="0"
       style="fill:#0c46ff;fill-opacity:1;stroke:#000000;stroke-width:20;stroke-miterlimit:4;stroke-dasharray:none"
       sodipodi:nodetypes="ccccscc" />
    <path
       style="stroke:#000000;stroke-width:24.29664421"
       inkscape:connector-curvature="0"
       d="m 364.70175,441.31363 c 0,0 -10.2908,74.07683 32.1651,71.25113 15.9204,-1.05933 46.1406,-14.72863 51.7944,-19.47619 4.6054,-3.86681 -11.4413,-42.97226 -35.1062,-54.41477 -24.7534,-11.96852 -48.8533,2.64105 -48.8533,2.63983"
       id="path3359" />
    <g
       transform="matrix(1.2148322,0,0,1.2148322,-138.32261,38.651417)"
       id="g3361">
      <path
         style="fill:none;stroke:#020202;stroke-width:7;stroke-linecap:round"
         inkscape:connector-curvature="0"
         d="m 379.054,446.319 c 0,0 22.375,12.583 39.75,12.583 17.45,0 38.275,-13.583 38.275,-13.583"
         id="path3363" />
      <line
         style="fill:none;stroke:#020202;stroke-width:7;stroke-linecap:round"
         x1="391.742"
         y1="441.069"
         x2="391.742"
         y2="462.569"
         id="line3365" />
      <line
         style="fill:none;stroke:#020202;stroke-width:7;stroke-linecap:round"
         x1="418.80399"
         y1="445.069"
         x2="418.80399"
         y2="466.569"
         id="line3367" />
      <line
         style="fill:none;stroke:#020202;stroke-width:7;stroke-linecap:round"
         x1="445.86499"
         y1="441.069"
         x2="445.86499"
         y2="462.569"
         id="line3369" />
    </g>
  </g>
  <g
     style="display:none"
     transform="translate(-46.846665,-178.41528)"
     id="g3311"
     inkscape:groupmode="layer"
     inkscape:label="-135">
    <g
       id="g3313"
       transform="matrix(-0.70710678,0.70710678,-0.70710678,-0.70710678,992.81261,562.05935)">
      <path
         id="path3315"
         d="m 221.91592,348.09274 c 44.806,32.322 266.82803,285.788 276.42103,319.032 9.593,33.242 -0.866,49.114 28.375,53.248 35.173,4.973 36.099,-31.896 36.099,-31.896 0,0 63.539,-6.842 57.539,-33.842 -25,-45 -41.632,-13.512 -70,-14 -28.368,-0.488 -292.87703,-320.54302 -297.23203,-341.00002 -3.947,-18.542 -14.115,-51.116 -39.957,-46.78 -32.672,5.482 -13.811,43.78 -13.811,43.78 0,0 -70,-20 -58.908,33.931 8.658,42.10102 57.692,0.371 81.474,17.52702 z"
         inkscape:connector-curvature="0"
         style="fill:#ffffff;stroke:#000000;stroke-width:20" />
      <path
         id="path3317"
         d="m 240.87792,675.28274 c 19.505,-46.82 18.228,-45.057 107.78403,-156.783 l -37.765,-26.979 c 0,0 -86.47903,136.914 -103.72203,145.029 -15.629,7.357 -42.466,5.293 -47.843,18.99 -11.025,28.1 33.316,37.609 33.316,37.609 0,0 -1.874,27.332 20.534,25.318 39.009,-3.508 17.42,-18.518 27.696,-43.184 z"
         inkscape:connector-curvature="0"
         style="fill:#ffffff;stroke:#000000;stroke-width:20" />
    </g>
    <path
       style="fill:none;stroke:#231f20;stroke-width:6.07416105"
       inkscape:connector-curvature="0"
       d="m 400.72885,418.11398 c 23.7366,16.05765 82.888,33.91083 82.888,33.91083"
       id="path3319" />
    <path
       style="fill:#ff0019;stroke:#000000;stroke-width:24.29664421"
       inkscape:connector-curvature="0"
       d="M 303.14245,513.17946"
       id="path3321" />
    <path
       sodipodi:nodetypes="cccccccc"
       inkscape:connector-curvature="0"
       d="m 454.46495,527.63469 c 3.8425,-26.04965 41.6634,-24.72663 41.3682,-65.51584 -0.1409,-19.5588 -1.3071,-119.34147 -131.593,-120.05337 l 0.9232,0 c -130.28469,0.7119 -130.02836,100.55774 -131.59307,120.05337 -3.61534,45.03383 40.60267,42.03301 45.81737,65.33712 12.8562,61.80476 22.2917,115.8024 91.023,117.27086 66.7954,0.45766 73.0667,-55.45666 84.0543,-117.09214 z"
       id="path3323"
       style="fill:#ee1e10;fill-opacity:1;stroke:#000000;stroke-width:20;stroke-miterlimit:4;stroke-dasharray:none" />
    <circle
       d="m 391.63101,362.33801 c 0,10.94573 -8.87327,19.819 -19.819,19.819 -10.94573,0 -19.819,-8.87327 -19.819,-19.819 0,-10.94573 8.87327,-19.819 19.819,-19.819 10.94573,0 19.819,8.87327 19.819,19.819 z"
       style="stroke:#000000;stroke-width:4"
       sodipodi:ry="19.819"
       sodipodi:rx="19.819"
       sodipodi:cy="362.33801"
       sodipodi:cx="371.81201"
       transform="matrix(1.2148322,0,0,1.2148322,-138.32261,38.651417)"
       cx="371.81201"
       cy="362.33801"
       r="19.819"
       id="circle3325" />
    <path
       d="m 494.20735,460.52751 c -0.9059,34.12909 -35.1332,47.52683 -35.1332,47.52683 -5.6308,4.79793 -35.2939,-10.58752 -62.8426,-29.22304 -35.0346,-23.70016 -95.6633,-120.5563 -95.6633,-120.5563 0,0 -2.2023,-14.38181 64.7325,-16.3377 66.9324,-1.95588 101.9563,41.60643 107.1193,50.11876 5.1655,8.51354 18.5137,28.77817 21.7873,68.47145 z"
       id="path3327"
       inkscape:connector-curvature="0"
       style="fill:#0c46ff;fill-opacity:1;stroke:#000000;stroke-width:20;stroke-miterlimit:4;stroke-dasharray:none"
       sodipodi:nodetypes="ccccscc" />
    <path
       style="stroke:#000000;stroke-width:24.29664421"
       inkscape:connector-curvature="0"
       d="m 364.70175,441.31363 c 0,0 -10.2908,74.07683 32.1651,71.25113 15.9204,-1.05933 46.1406,-14.72863 51.7944,-19.47619 4.6054,-3.86681 -11.4413,-42.97226 -35.1062,-54.41477 -24.7534,-11.96852 -48.8533,2.64105 -48.8533,2.63983"
       id="path3329" />
    <g
       transform="matrix(1.2148322,0,0,1.2148322,-138.32261,38.651417)"
       id="g3331">
      <path
         style="fill:none;stroke:#020202;stroke-width:7;stroke-linecap:round"
         inkscape:connector-curvature="0"
         d="m 379.054,446.319 c 0,0 22.375,12.583 39.75,12.583 17.45,0 38.275,-13.583 38.275,-13.583"
         id="path3333" />
      <line
         style="fill:none;stroke:#020202;stroke-width:7;stroke-linecap:round"
         x1="391.742"
         y1="441.069"
         x2="391.742"
         y2="462.569"
         id="line3335" />
      <line
         style="fill:none;stroke:#020202;stroke-width:7;stroke-linecap:round"
         x1="418.80399"
         y1="445.069"
         x2="418.80399"
         y2="466.569"
         id="line3337" />
      <line
         style="fill:none;stroke:#020202;stroke-width:7;stroke-linecap:round"
         x1="445.86499"
         y1="441.069"
         x2="445.86499"
         y2="462.569"
         id="line3339" />
    </g>
  </g>
  <g
     inkscape:label="-157.5"
     inkscape:groupmode="layer"
     id="g3491"
     transform="translate(-46.846665,-178.41528)"
     style="display:none">
    <g
       id="g3493"
       transform="matrix(-0.92387953,0.38268343,-0.38268343,-0.92387953,917.30632,790.83222)">
      <path
         style="fill:#ffffff;stroke:#000000;stroke-width:20"
         inkscape:connector-curvature="0"
         d="m 221.91592,348.09274 c 44.806,32.322 266.82803,285.788 276.42103,319.032 9.593,33.242 -0.866,49.114 28.375,53.248 35.173,4.973 36.099,-31.896 36.099,-31.896 0,0 63.539,-6.842 57.539,-33.842 -25,-45 -41.632,-13.512 -70,-14 -28.368,-0.488 -292.87703,-320.54302 -297.23203,-341.00002 -3.947,-18.542 -14.115,-51.116 -39.957,-46.78 -32.672,5.482 -13.811,43.78 -13.811,43.78 0,0 -70,-20 -58.908,33.931 8.658,42.10102 57.692,0.371 81.474,17.52702 z"
         id="path3495" />
      <path
         style="fill:#ffffff;stroke:#000000;stroke-width:20"
         inkscape:connector-curvature="0"
         d="m 240.87792,675.28274 c 19.505,-46.82 18.228,-45.057 107.78403,-156.783 l -37.765,-26.979 c 0,0 -86.47903,136.914 -103.72203,145.029 -15.629,7.357 -42.466,5.293 -47.843,18.99 -11.025,28.1 33.316,37.609 33.316,37.609 0,0 -1.874,27.332 20.534,25.318 39.009,-3.508 17.42,-18.518 27.696,-43.184 z"
         id="path3497" />
    </g>
    <path
       id="path3499"
       d="m 400.72885,418.11398 c 23.7366,16.05765 82.888,33.91083 82.888,33.91083"
       inkscape:connector-curvature="0"
       style="fill:none;stroke:#231f20;stroke-width:6.07416105" />
    <path
       id="path3501"
       d="M 303.14245,513.17946"
       inkscape:connector-curvature="0"
       style="fill:#ff0019;stroke:#000000;stroke-width:24.29664421" />
    <path
       style="fill:#ee1e10;fill-opacity:1;stroke:#000000;stroke-width:20;stroke-miterlimit:4;stroke-dasharray:none"
       id="path3503"
       d="m 454.46495,527.63469 c 3.8425,-26.04965 41.6634,-24.72663 41.3682,-65.51584 -0.1409,-19.5588 -1.3071,-119.34147 -131.593,-120.05337 l 0.9232,0 c -130.28469,0.7119 -130.02836,100.55774 -131.59307,120.05337 -3.61534,45.03383 40.60267,42.03301 45.81737,65.33712 12.8562,61.80476 22.2917,115.8024 91.023,117.27086 66.7954,0.45766 73.0667,-55.45666 84.0543,-117.09214 z"
       inkscape:connector-curvature="0"
       sodipodi:nodetypes="cccccccc" />
    <circle
       id="circle3505"
       r="19.819"
       cy="362.33801"
       cx="371.81201"
       transform="matrix(1.2148322,0,0,1.2148322,-138.32261,38.651417)"
       sodipodi:cx="371.81201"
       sodipodi:cy="362.33801"
       sodipodi:rx="19.819"
       sodipodi:ry="19.819"
       style="stroke:#000000;stroke-width:4"
       d="m 391.63101,362.33801 c 0,10.94573 -8.87327,19.819 -19.819,19.819 -10.94573,0 -19.819,-8.87327 -19.819,-19.819 0,-10.94573 8.87327,-19.819 19.819,-19.819 10.94573,0 19.819,8.87327 19.819,19.819 z" />
    <path
       sodipodi:nodetypes="ccccscc"
       style="fill:#0c46ff;fill-opacity:1;stroke:#000000;stroke-width:20;stroke-miterlimit:4;stroke-dasharray:none"
       inkscape:connector-curvature="0"
       id="path3507"
       d="m 494.20735,460.52751 c -0.9059,34.12909 -35.1332,47.52683 -35.1332,47.52683 -5.6308,4.79793 -35.2939,-10.58752 -62.8426,-29.22304 -35.0346,-23.70016 -95.6633,-120.5563 -95.6633,-120.5563 0,0 -2.2023,-14.38181 64.7325,-16.3377 66.9324,-1.95588 101.9563,41.60643 107.1193,50.11876 5.1655,8.51354 18.5137,28.77817 21.7873,68.47145 z" />
    <path
       id="path3509"
       d="m 364.70175,441.31363 c 0,0 -10.2908,74.07683 32.1651,71.25113 15.9204,-1.05933 46.1406,-14.72863 51.7944,-19.47619 4.6054,-3.86681 -11.4413,-42.97226 -35.1062,-54.41477 -24.7534,-11.96852 -48.8533,2.64105 -48.8533,2.63983"
       inkscape:connector-curvature="0"
       style="stroke:#000000;stroke-width:24.29664421" />
    <g
       id="g3511"
       transform="matrix(1.2148322,0,0,1.2148322,-138.32261,38.651417)">
      <path
         id="path3513"
         d="m 379.054,446.319 c 0,0 22.375,12.583 39.75,12.583 17.45,0 38.275,-13.583 38.275,-13.583"
         inkscape:connector-curvature="0"
         style="fill:none;stroke:#020202;stroke-width:7;stroke-linecap:round" />
      <line
         id="line3515"
         y2="462.569"
         x2="391.742"
         y1="441.069"
         x1="391.742"
         style="fill:none;stroke:#020202;stroke-width:7;stroke-linecap:round" />
      <line
         id="line3517"
         y2="466.569"
         x2="418.80399"
         y1="445.069"
         x1="418.80399"
         style="fill:none;stroke:#020202;stroke-width:7;stroke-linecap:round" />
      <line
         id="line3519"
         y2="462.569"
         x2="445.86499"
         y1="441.069"
         x1="445.86499"
         style="fill:none;stroke:#020202;stroke-width:7;stroke-linecap:round" />
    </g>
  </g>
  <g
     style="display:none"
     transform="translate(-46.846665,-178.41528)"
     id="g3281"
     inkscape:groupmode="layer"
     inkscape:label="-180">
    <g
       id="g3283"
       transform="matrix(-1,0,0,-1,760.00001,973.29579)">
      <path
         id="path3285"
         d="m 221.91592,348.09274 c 44.806,32.322 266.82803,285.788 276.42103,319.032 9.593,33.242 -0.866,49.114 28.375,53.248 35.173,4.973 36.099,-31.896 36.099,-31.896 0,0 63.539,-6.842 57.539,-33.842 -25,-45 -41.632,-13.512 -70,-14 -28.368,-0.488 -292.87703,-320.54302 -297.23203,-341.00002 -3.947,-18.542 -14.115,-51.116 -39.957,-46.78 -32.672,5.482 -13.811,43.78 -13.811,43.78 0,0 -70,-20 -58.908,33.931 8.658,42.10102 57.692,0.371 81.474,17.52702 z"
         inkscape:connector-curvature="0"
         style="fill:#ffffff;stroke:#000000;stroke-width:20" />
      <path
         id="path3287"
         d="m 240.87792,675.28274 c 19.505,-46.82 18.228,-45.057 107.78403,-156.783 l -37.765,-26.979 c 0,0 -86.47903,136.914 -103.72203,145.029 -15.629,7.357 -42.466,5.293 -47.843,18.99 -11.025,28.1 33.316,37.609 33.316,37.609 0,0 -1.874,27.332 20.534,25.318 39.009,-3.508 17.42,-18.518 27.696,-43.184 z"
         inkscape:connector-curvature="0"
         style="fill:#ffffff;stroke:#000000;stroke-width:20" />
    </g>
    <path
       style="fill:none;stroke:#231f20;stroke-width:6.07416105"
       inkscape:connector-curvature="0"
       d="m 400.72885,418.11398 c 23.7366,16.05765 82.888,33.91083 82.888,33.91083"
       id="path3289" />
    <path
       style="fill:#ff0019;stroke:#000000;stroke-width:24.29664421"
       inkscape:connector-curvature="0"
       d="M 303.14245,513.17946"
       id="path3291" />
    <path
       sodipodi:nodetypes="cccccccc"
       inkscape:connector-curvature="0"
       d="m 454.46495,527.63469 c 3.8425,-26.04965 41.6634,-24.72663 41.3682,-65.51584 -0.1409,-19.5588 -1.3071,-119.34147 -131.593,-120.05337 l 0.9232,0 c -130.28469,0.7119 -130.02836,100.55774 -131.59307,120.05337 -3.61534,45.03383 40.60267,42.03301 45.81737,65.33712 12.8562,61.80476 22.2917,115.8024 91.023,117.27086 66.7954,0.45766 73.0667,-55.45666 84.0543,-117.09214 z"
       id="path3293"
       style="fill:#ee1e10;fill-opacity:1;stroke:#000000;stroke-width:20;stroke-miterlimit:4;stroke-dasharray:none" />
    <circle
       d="m 391.63101,362.33801 c 0,10.94573 -8.87327,19.819 -19.819,19.819 -10.94573,0 -19.819,-8.87327 -19.819,-19.819 0,-10.94573 8.87327,-19.819 19.819,-19.819 10.94573,0 19.819,8.87327 19.819,19.819 z"
       style="stroke:#000000;stroke-width:4"
       sodipodi:ry="19.819"
       sodipodi:rx="19.819"
       sodipodi:cy="362.33801"
       sodipodi:cx="371.81201"
       transform="matrix(1.2148322,0,0,1.2148322,-138.32261,38.651417)"
       cx="371.81201"
       cy="362.33801"
       r="19.819"
       id="circle3295" />
    <path
       d="m 494.20735,460.52751 c -0.9059,34.12909 -35.1332,47.52683 -35.1332,47.52683 -5.6308,4.79793 -35.2939,-10.58752 -62.8426,-29.22304 -35.0346,-23.70016 -95.6633,-120.5563 -95.6633,-120.5563 0,0 -2.2023,-14.38181 64.7325,-16.3377 66.9324,-1.95588 101.9563,41.60643 107.1193,50.11876 5.1655,8.51354 18.5137,28.77817 21.7873,68.47145 z"
       id="path3297"
       inkscape:connector-curvature="0"
       style="fill:#0c46ff;fill-opacity:1;stroke:#000000;stroke-width:20;stroke-miterlimit:4;stroke-dasharray:none"
       sodipodi:nodetypes="ccccscc" />
    <path
       style="stroke:#000000;stroke-width:24.29664421"
       inkscape:connector-curvature="0"
       d="m 364.70175,441.31363 c 0,0 -10.2908,74.07683 32.1651,71.25113 15.9204,-1.05933 46.1406,-14.72863 51.7944,-19.47619 4.6054,-3.86681 -11.4413,-42.97226 -35.1062,-54.41477 -24.7534,-11.96852 -48.8533,2.64105 -48.8533,2.63983"
       id="path3299" />
    <g
       transform="matrix(1.2148322,0,0,1.2148322,-138.32261,38.651417)"
       id="g3301">
      <path
         style="fill:none;stroke:#020202;stroke-width:7;stroke-linecap:round"
         inkscape:connector-curvature="0"
         d="m 379.054,446.319 c 0,0 22.375,12.583 39.75,12.583 17.45,0 38.275,-13.583 38.275,-13.583"
         id="path3303" />
      <line
         style="fill:none;stroke:#020202;stroke-width:7;stroke-linecap:round"
         x1="391.742"
         y1="441.069"
         x2="391.742"
         y2="462.569"
         id="line3305" />
      <line
         style="fill:none;stroke:#020202;stroke-width:7;stroke-linecap:round"
         x1="418.80399"
         y1="445.069"
         x2="418.80399"
         y2="466.569"
         id="line3307" />
      <line
         style="fill:none;stroke:#020202;stroke-width:7;stroke-linecap:round"
         x1="445.86499"
         y1="441.069"
         x2="445.86499"
         y2="462.569"
         id="line3309" />
    </g>
  </g>
  <g
     style="display:none"
     transform="translate(-46.846665,-178.41528)"
     id="g3521"
     inkscape:groupmode="layer"
     inkscape:label="0 copy">
    <g
       id="g3523"
       transform="matrix(-0.92387953,-0.38268343,0.38268343,-0.92387953,544.84214,1081.6716)">
      <path
         id="path3525"
         d="m 221.91592,348.09274 c 44.806,32.322 266.82803,285.788 276.42103,319.032 9.593,33.242 -0.866,49.114 28.375,53.248 35.173,4.973 36.099,-31.896 36.099,-31.896 0,0 63.539,-6.842 57.539,-33.842 -25,-45 -41.632,-13.512 -70,-14 -28.368,-0.488 -292.87703,-320.54302 -297.23203,-341.00002 -3.947,-18.542 -14.115,-51.116 -39.957,-46.78 -32.672,5.482 -13.811,43.78 -13.811,43.78 0,0 -70,-20 -58.908,33.931 8.658,42.10102 57.692,0.371 81.474,17.52702 z"
         inkscape:connector-curvature="0"
         style="fill:#ffffff;stroke:#000000;stroke-width:20" />
      <path
         id="path3527"
         d="m 240.87792,675.28274 c 19.505,-46.82 18.228,-45.057 107.78403,-156.783 l -37.765,-26.979 c 0,0 -86.47903,136.914 -103.72203,145.029 -15.629,7.357 -42.466,5.293 -47.843,18.99 -11.025,28.1 33.316,37.609 33.316,37.609 0,0 -1.874,27.332 20.534,25.318 39.009,-3.508 17.42,-18.518 27.696,-43.184 z"
         inkscape:connector-curvature="0"
         style="fill:#ffffff;stroke:#000000;stroke-width:20" />
    </g>
    <path
       style="fill:none;stroke:#231f20;stroke-width:6.07416105"
       inkscape:connector-curvature="0"
       d="m 400.72885,418.11398 c 23.7366,16.05765 82.888,33.91083 82.888,33.91083"
       id="path3529" />
    <path
       style="fill:#ff0019;stroke:#000000;stroke-width:24.29664421"
       inkscape:connector-curvature="0"
       d="M 303.14245,513.17946"
       id="path3531" />
    <path
       sodipodi:nodetypes="cccccccc"
       inkscape:connector-curvature="0"
       d="m 454.46495,527.63469 c 3.8425,-26.04965 41.6634,-24.72663 41.3682,-65.51584 -0.1409,-19.5588 -1.3071,-119.34147 -131.593,-120.05337 l 0.9232,0 c -130.28469,0.7119 -130.02836,100.55774 -131.59307,120.05337 -3.61534,45.03383 40.60267,42.03301 45.81737,65.33712 12.8562,61.80476 22.2917,115.8024 91.023,117.27086 66.7954,0.45766 73.0667,-55.45666 84.0543,-117.09214 z"
       id="path3533"
       style="fill:#ee1e10;fill-opacity:1;stroke:#000000;stroke-width:20;stroke-miterlimit:4;stroke-dasharray:none" />
    <circle
       d="m 391.63101,362.33801 c 0,10.94573 -8.87327,19.819 -19.819,19.819 -10.94573,0 -19.819,-8.87327 -19.819,-19.819 0,-10.94573 8.87327,-19.819 19.819,-19.819 10.94573,0 19.819,8.87327 19.819,19.819 z"
       style="stroke:#000000;stroke-width:4"
       sodipodi:ry="19.819"
       sodipodi:rx="19.819"
       sodipodi:cy="362.33801"
       sodipodi:cx="371.81201"
       transform="matrix(1.2148322,0,0,1.2148322,-138.32261,38.651417)"
       cx="371.81201"
       cy="362.33801"
       r="19.819"
       id="circle3535" />
    <path
       d="m 494.20735,460.52751 c -0.9059,34.12909 -35.1332,47.52683 -35.1332,47.52683 -5.6308,4.79793 -35.2939,-10.58752 -62.8426,-29.22304 -35.0346,-23.70016 -95.6633,-120.5563 -95.6633,-120.5563 0,0 -2.2023,-14.38181 64.7325,-16.3377 66.9324,-1.95588 101.9563,41.60643 107.1193,50.11876 5.1655,8.51354 18.5137,28.77817 21.7873,68.47145 z"
       id="path3537"
       inkscape:connector-curvature="0"
       style="fill:#0c46ff;fill-opacity:1;stroke:#000000;stroke-width:20;stroke-miterlimit:4;stroke-dasharray:none"
       sodipodi:nodetypes="ccccscc" />
    <path
       style="stroke:#000000;stroke-width:24.29664421"
       inkscape:connector-curvature="0"
       d="m 364.70175,441.31363 c 0,0 -10.2908,74.07683 32.1651,71.25113 15.9204,-1.05933 46.1406,-14.72863 51.7944,-19.47619 4.6054,-3.86681 -11.4413,-42.97226 -35.1062,-54.41477 -24.7534,-11.96852 -48.8533,2.64105 -48.8533,2.63983"
       id="path3539" />
    <g
       transform="matrix(1.2148322,0,0,1.2148322,-138.32261,38.651417)"
       id="g3541">
      <path
         style="fill:none;stroke:#020202;stroke-width:7;stroke-linecap:round"
         inkscape:connector-curvature="0"
         d="m 379.054,446.319 c 0,0 22.375,12.583 39.75,12.583 17.45,0 38.275,-13.583 38.275,-13.583"
         id="path3543" />
      <line
         style="fill:none;stroke:#020202;stroke-width:7;stroke-linecap:round"
         x1="391.742"
         y1="441.069"
         x2="391.742"
         y2="462.569"
         id="line3545" />
      <line
         style="fill:none;stroke:#020202;stroke-width:7;stroke-linecap:round"
         x1="418.80399"
         y1="445.069"
         x2="418.80399"
         y2="466.569"
         id="line3547" />
      <line
         style="fill:none;stroke:#020202;stroke-width:7;stroke-linecap:round"
         x1="445.86499"
         y1="441.069"
         x2="445.86499"
         y2="462.569"
         id="line3549" />
    </g>
  </g>
  <g
     style="display:none"
     transform="translate(-46.846665,-178.41528)"
     id="g3551"
     inkscape:groupmode="layer"
     inkscape:label="0 copy#1">
    <g
       id="g3553"
       transform="matrix(-0.70710678,-0.70710678,0.70710678,-0.70710678,304.58855,1099.4605)">
      <path
         id="path3555"
         d="m 221.91592,348.09274 c 44.806,32.322 266.82803,285.788 276.42103,319.032 9.593,33.242 -0.866,49.114 28.375,53.248 35.173,4.973 36.099,-31.896 36.099,-31.896 0,0 63.539,-6.842 57.539,-33.842 -25,-45 -41.632,-13.512 -70,-14 -28.368,-0.488 -292.87703,-320.54302 -297.23203,-341.00002 -3.947,-18.542 -14.115,-51.116 -39.957,-46.78 -32.672,5.482 -13.811,43.78 -13.811,43.78 0,0 -70,-20 -58.908,33.931 8.658,42.10102 57.692,0.371 81.474,17.52702 z"
         inkscape:connector-curvature="0"
         style="fill:#ffffff;stroke:#000000;stroke-width:20" />
      <path
         id="path3557"
         d="m 240.87792,675.28274 c 19.505,-46.82 18.228,-45.057 107.78403,-156.783 l -37.765,-26.979 c 0,0 -86.47903,136.914 -103.72203,145.029 -15.629,7.357 -42.466,5.293 -47.843,18.99 -11.025,28.1 33.316,37.609 33.316,37.609 0,0 -1.874,27.332 20.534,25.318 39.009,-3.508 17.42,-18.518 27.696,-43.184 z"
         inkscape:connector-curvature="0"
         style="fill:#ffffff;stroke:#000000;stroke-width:20" />
    </g>
    <path
       style="fill:none;stroke:#231f20;stroke-width:6.07416105"
       inkscape:connector-curvature="0"
       d="m 400.72885,418.11398 c 23.7366,16.05765 82.888,33.91083 82.888,33.91083"
       id="path3559" />
    <path
       style="fill:#ff0019;stroke:#000000;stroke-width:24.29664421"
       inkscape:connector-curvature="0"
       d="M 303.14245,513.17946"
       id="path3561" />
    <path
       sodipodi:nodetypes="cccccccc"
       inkscape:connector-curvature="0"
       d="m 454.46495,527.63469 c 3.8425,-26.04965 41.6634,-24.72663 41.3682,-65.51584 -0.1409,-19.5588 -1.3071,-119.34147 -131.593,-120.05337 l 0.9232,0 c -130.28469,0.7119 -130.02836,100.55774 -131.59307,120.05337 -3.61534,45.03383 40.60267,42.03301 45.81737,65.33712 12.8562,61.80476 22.2917,115.8024 91.023,117.27086 66.7954,0.45766 73.0667,-55.45666 84.0543,-117.09214 z"
       id="path3563"
       style="fill:#ee1e10;fill-opacity:1;stroke:#000000;stroke-width:20;stroke-miterlimit:4;stroke-dasharray:none" />
    <circle
       d="m 391.63101,362.33801 c 0,10.94573 -8.87327,19.819 -19.819,19.819 -10.94573,0 -19.819,-8.87327 -19.819,-19.819 0,-10.94573 8.87327,-19.819 19.819,-19.819 10.94573,0 19.819,8.87327 19.819,19.819 z"
       style="stroke:#000000;stroke-width:4"
       sodipodi:ry="19.819"
       sodipodi:rx="19.819"
       sodipodi:cy="362.33801"
       sodipodi:cx="371.81201"
       transform="matrix(1.2148322,0,0,1.2148322,-138.32261,38.651417)"
       cx="371.81201"
       cy="362.33801"
       r="19.819"
       id="circle3565" />
    <path
       d="m 494.20735,460.52751 c -0.9059,34.12909 -35.1332,47.52683 -35.1332,47.52683 -5.6308,4.79793 -35.2939,-10.58752 -62.8426,-29.22304 -35.0346,-23.70016 -95.6633,-120.5563 -95.6633,-120.5563 0,0 -2.2023,-14.38181 64.7325,-16.3377 66.9324,-1.95588 101.9563,41.60643 107.1193,50.11876 5.1655,8.51354 18.5137,28.77817 21.7873,68.47145 z"
       id="path3567"
       inkscape:connector-curvature="0"
       style="fill:#0c46ff;fill-opacity:1;stroke:#000000;stroke-width:20;stroke-miterlimit:4;stroke-dasharray:none"
       sodipodi:nodetypes="ccccscc" />
    <path
       style="stroke:#000000;stroke-width:24.29664421"
       inkscape:connector-curvature="0"
       d="m 364.70175,441.31363 c 0,0 -10.2908,74.07683 32.1651,71.25113 15.9204,-1.05933 46.1406,-14.72863 51.7944,-19.47619 4.6054,-3.86681 -11.4413,-42.97226 -35.1062,-54.41477 -24.7534,-11.96852 -48.8533,2.64105 -48.8533,2.63983"
       id="path3569" />
    <g
       transform="matrix(1.2148322,0,0,1.2148322,-138.32261,38.651417)"
       id="g3571">
      <path
         style="fill:none;stroke:#020202;stroke-width:7;stroke-linecap:round"
         inkscape:connector-curvature="0"
         d="m 379.054,446.319 c 0,0 22.375,12.583 39.75,12.583 17.45,0 38.275,-13.583 38.275,-13.583"
         id="path3573" />
      <line
         style="fill:none;stroke:#020202;stroke-width:7;stroke-linecap:round"
         x1="391.742"
         y1="441.069"
         x2="391.742"
         y2="462.569"
         id="line3575" />
      <line
         style="fill:none;stroke:#020202;stroke-width:7;stroke-linecap:round"
         x1="418.80399"
         y1="445.069"
         x2="418.80399"
         y2="466.569"
         id="line3577" />
      <line
         style="fill:none;stroke:#020202;stroke-width:7;stroke-linecap:round"
         x1="445.86499"
         y1="441.069"
         x2="445.86499"
         y2="462.569"
         id="line3579" />
    </g>
  </g>
  <g
     style="display:none"
     transform="translate(-46.846665,-178.41528)"
     id="g3581"
     inkscape:groupmode="layer"
     inkscape:label="0 copy#2">
    <g
       id="g3583"
       transform="matrix(-0.38268343,-0.92387953,0.92387953,-0.38268343,75.815677,1023.9542)">
      <path
         id="path3585"
         d="m 221.91592,348.09274 c 44.806,32.322 266.82803,285.788 276.42103,319.032 9.593,33.242 -0.866,49.114 28.375,53.248 35.173,4.973 36.099,-31.896 36.099,-31.896 0,0 63.539,-6.842 57.539,-33.842 -25,-45 -41.632,-13.512 -70,-14 -28.368,-0.488 -292.87703,-320.54302 -297.23203,-341.00002 -3.947,-18.542 -14.115,-51.116 -39.957,-46.78 -32.672,5.482 -13.811,43.78 -13.811,43.78 0,0 -70,-20 -58.908,33.931 8.658,42.10102 57.692,0.371 81.474,17.52702 z"
         inkscape:connector-curvature="0"
         style="fill:#ffffff;stroke:#000000;stroke-width:20" />
      <path
         id="path3587"
         d="m 240.87792,675.28274 c 19.505,-46.82 18.228,-45.057 107.78403,-156.783 l -37.765,-26.979 c 0,0 -86.47903,136.914 -103.72203,145.029 -15.629,7.357 -42.466,5.293 -47.843,18.99 -11.025,28.1 33.316,37.609 33.316,37.609 0,0 -1.874,27.332 20.534,25.318 39.009,-3.508 17.42,-18.518 27.696,-43.184 z"
         inkscape:connector-curvature="0"
         style="fill:#ffffff;stroke:#000000;stroke-width:20" />
    </g>
    <path
       style="fill:none;stroke:#231f20;stroke-width:6.07416105"
       inkscape:connector-curvature="0"
       d="m 400.72885,418.11398 c 23.7366,16.05765 82.888,33.91083 82.888,33.91083"
       id="path3589" />
    <path
       style="fill:#ff0019;stroke:#000000;stroke-width:24.29664421"
       inkscape:connector-curvature="0"
       d="M 303.14245,513.17946"
       id="path3591" />
    <path
       sodipodi:nodetypes="cccccccc"
       inkscape:connector-curvature="0"
       d="m 454.46495,527.63469 c 3.8425,-26.04965 41.6634,-24.72663 41.3682,-65.51584 -0.1409,-19.5588 -1.3071,-119.34147 -131.593,-120.05337 l 0.9232,0 c -130.28469,0.7119 -130.02836,100.55774 -131.59307,120.05337 -3.61534,45.03383 40.60267,42.03301 45.81737,65.33712 12.8562,61.80476 22.2917,115.8024 91.023,117.27086 66.7954,0.45766 73.0667,-55.45666 84.0543,-117.09214 z"
       id="path3593"
       style="fill:#ee1e10;fill-opacity:1;stroke:#000000;stroke-width:20;stroke-miterlimit:4;stroke-dasharray:none" />
    <circle
       d="m 391.63101,362.33801 c 0,10.94573 -8.87327,19.819 -19.819,19.819 -10.94573,0 -19.819,-8.87327 -19.819,-19.819 0,-10.94573 8.87327,-19.819 19.819,-19.819 10.94573,0 19.819,8.87327 19.819,19.819 z"
       style="stroke:#000000;stroke-width:4"
       sodipodi:ry="19.819"
       sodipodi:rx="19.819"
       sodipodi:cy="362.33801"
       sodipodi:cx="371.81201"
       transform="matrix(1.2148322,0,0,1.2148322,-138.32261,38.651417)"
       cx="371.81201"
       cy="362.33801"
       r="19.819"
       id="circle3595" />
    <path
       d="m 494.20735,460.52751 c -0.9059,34.12909 -35.1332,47.52683 -35.1332,47.52683 -5.6308,4.79793 -35.2939,-10.58752 -62.8426,-29.22304 -35.0346,-23.70016 -95.6633,-120.5563 -95.6633,-120.5563 0,0 -2.2023,-14.38181 64.7325,-16.3377 66.9324,-1.95588 101.9563,41.60643 107.1193,50.11876 5.1655,8.51354 18.5137,28.77817 21.7873,68.47145 z"
       id="path3597"
       inkscape:connector-curvature="0"
       style="fill:#0c46ff;fill-opacity:1;stroke:#000000;stroke-width:20;stroke-miterlimit:4;stroke-dasharray:none"
       sodipodi:nodetypes="ccccscc" />
    <path
       style="stroke:#000000;stroke-width:24.29664421"
       inkscape:connector-curvature="0"
       d="m 364.70175,441.31363 c 0,0 -10.2908,74.07683 32.1651,71.25113 15.9204,-1.05933 46.1406,-14.72863 51.7944,-19.47619 4.6054,-3.86681 -11.4413,-42.97226 -35.1062,-54.41477 -24.7534,-11.96852 -48.8533,2.64105 -48.8533,2.63983"
       id="path3599" />
    <g
       transform="matrix(1.2148322,0,0,1.2148322,-138.32261,38.651417)"
       id="g3601">
      <path
         style="fill:none;stroke:#020202;stroke-width:7;stroke-linecap:round"
         inkscape:connector-curvature="0"
         d="m 379.054,446.319 c 0,0 22.375,12.583 39.75,12.583 17.45,0 38.275,-13.583 38.275,-13.583"
         id="path3603" />
      <line
         style="fill:none;stroke:#020202;stroke-width:7;stroke-linecap:round"
         x1="391.742"
         y1="441.069"
         x2="391.742"
         y2="462.569"
         id="line3605" />
      <line
         style="fill:none;stroke:#020202;stroke-width:7;stroke-linecap:round"
         x1="418.80399"
         y1="445.069"
         x2="418.80399"
         y2="466.569"
         id="line3607" />
      <line
         style="fill:none;stroke:#020202;stroke-width:7;stroke-linecap:round"
         x1="445.86499"
         y1="441.069"
         x2="445.86499"
         y2="462.569"
         id="line3609" />
    </g>
  </g>
  <g
     style="display:none"
     transform="translate(-46.846665,-178.41528)"
     id="g3611"
     inkscape:groupmode="layer"
     inkscape:label="0 copy#3">
    <g
       id="g3613"
       transform="matrix(0,-1,1,0,-106.64789,866.6479)">
      <path
         id="path3615"
         d="m 221.91592,348.09274 c 44.806,32.322 266.82803,285.788 276.42103,319.032 9.593,33.242 -0.866,49.114 28.375,53.248 35.173,4.973 36.099,-31.896 36.099,-31.896 0,0 63.539,-6.842 57.539,-33.842 -25,-45 -41.632,-13.512 -70,-14 -28.368,-0.488 -292.87703,-320.54302 -297.23203,-341.00002 -3.947,-18.542 -14.115,-51.116 -39.957,-46.78 -32.672,5.482 -13.811,43.78 -13.811,43.78 0,0 -70,-20 -58.908,33.931 8.658,42.10102 57.692,0.371 81.474,17.52702 z"
         inkscape:connector-curvature="0"
         style="fill:#ffffff;stroke:#000000;stroke-width:20" />
      <path
         id="path3617"
         d="m 240.87792,675.28274 c 19.505,-46.82 18.228,-45.057 107.78403,-156.783 l -37.765,-26.979 c 0,0 -86.47903,136.914 -103.72203,145.029 -15.629,7.357 -42.466,5.293 -47.843,18.99 -11.025,28.1 33.316,37.609 33.316,37.609 0,0 -1.874,27.332 20.534,25.318 39.009,-3.508 17.42,-18.518 27.696,-43.184 z"
         inkscape:connector-curvature="0"
         style="fill:#ffffff;stroke:#000000;stroke-width:20" />
    </g>
    <path
       style="fill:none;stroke:#231f20;stroke-width:6.07416105"
       inkscape:connector-curvature="0"
       d="m 400.72885,418.11398 c 23.7366,16.05765 82.888,33.91083 82.888,33.91083"
       id="path3619" />
    <path
       style="fill:#ff0019;stroke:#000000;stroke-width:24.29664421"
       inkscape:connector-curvature="0"
       d="M 303.14245,513.17946"
       id="path3621" />
    <path
       sodipodi:nodetypes="cccccccc"
       inkscape:connector-curvature="0"
       d="m 454.46495,527.63469 c 3.8425,-26.04965 41.6634,-24.72663 41.3682,-65.51584 -0.1409,-19.5588 -1.3071,-119.34147 -131.593,-120.05337 l 0.9232,0 c -130.28469,0.7119 -130.02836,100.55774 -131.59307,120.05337 -3.61534,45.03383 40.60267,42.03301 45.81737,65.33712 12.8562,61.80476 22.2917,115.8024 91.023,117.27086 66.7954,0.45766 73.0667,-55.45666 84.0543,-117.09214 z"
       id="path3623"
       style="fill:#ee1e10;fill-opacity:1;stroke:#000000;stroke-width:20;stroke-miterlimit:4;stroke-dasharray:none" />
    <circle
       d="m 391.63101,362.33801 c 0,10.94573 -8.87327,19.819 -19.819,19.819 -10.94573,0 -19.819,-8.87327 -19.819,-19.819 0,-10.94573 8.87327,-19.819 19.819,-19.819 10.94573,0 19.819,8.87327 19.819,19.819 z"
       style="stroke:#000000;stroke-width:4"
       sodipodi:ry="19.819"
       sodipodi:rx="19.819"
       sodipodi:cy="362.33801"
       sodipodi:cx="371.81201"
       transform="matrix(1.2148322,0,0,1.2148322,-138.32261,38.651417)"
       cx="371.81201"
       cy="362.33801"
       r="19.819"
       id="circle3625" />
    <path
       d="m 494.20735,460.52751 c -0.9059,34.12909 -35.1332,47.52683 -35.1332,47.52683 -5.6308,4.79793 -35.2939,-10.58752 -62.8426,-29.22304 -35.0346,-23.70016 -95.6633,-120.5563 -95.6633,-120.5563 0,0 -2.2023,-14.38181 64.7325,-16.3377 66.9324,-1.95588 101.9563,41.60643 107.1193,50.11876 5.1655,8.51354 18.5137,28.77817 21.7873,68.47145 z"
       id="path3627"
       inkscape:connector-curvature="0"
       style="fill:#0c46ff;fill-opacity:1;stroke:#000000;stroke-width:20;stroke-miterlimit:4;stroke-dasharray:none"
       sodipodi:nodetypes="ccccscc" />
    <path
       style="stroke:#000000;stroke-width:24.29664421"
       inkscape:connector-curvature="0"
       d="m 364.70175,441.31363 c 0,0 -10.2908,74.07683 32.1651,71.25113 15.9204,-1.05933 46.1406,-14.72863 51.7944,-19.47619 4.6054,-3.86681 -11.4413,-42.97226 -35.1062,-54.41477 -24.7534,-11.96852 -48.8533,2.64105 -48.8533,2.63983"
       id="path3629" />
    <g
       transform="matrix(1.2148322,0,0,1.2148322,-138.32261,38.651417)"
       id="g3631">
      <path
         style="fill:none;stroke:#020202;stroke-width:7;stroke-linecap:round"
         inkscape:connector-curvature="0"
         d="m 379.054,446.319 c 0,0 22.375,12.583 39.75,12.583 17.45,0 38.275,-13.583 38.275,-13.583"
         id="path3633" />
      <line
         style="fill:none;stroke:#020202;stroke-width:7;stroke-linecap:round"
         x1="391.742"
         y1="441.069"
         x2="391.742"
         y2="462.569"
         id="line3635" />
      <line
         style="fill:none;stroke:#020202;stroke-width:7;stroke-linecap:round"
         x1="418.80399"
         y1="445.069"
         x2="418.80399"
         y2="466.569"
         id="line3637" />
      <line
         style="fill:none;stroke:#020202;stroke-width:7;stroke-linecap:round"
         x1="445.86499"
         y1="441.069"
         x2="445.86499"
         y2="462.569"
         id="line3639" />
    </g>
  </g>
  <g
     style="display:none"
     transform="translate(-46.846665,-178.41528)"
     id="g3641"
     inkscape:groupmode="layer"
     inkscape:label="0 copy#4">
    <g
       id="g3643"
       transform="matrix(0.38268343,-0.92387953,0.92387953,0.38268343,-215.02373,651.49003)">
      <path
         id="path3645"
         d="m 221.91592,348.09274 c 44.806,32.322 266.82803,285.788 276.42103,319.032 9.593,33.242 -0.866,49.114 28.375,53.248 35.173,4.973 36.099,-31.896 36.099,-31.896 0,0 63.539,-6.842 57.539,-33.842 -25,-45 -41.632,-13.512 -70,-14 -28.368,-0.488 -292.87703,-320.54302 -297.23203,-341.00002 -3.947,-18.542 -14.115,-51.116 -39.957,-46.78 -32.672,5.482 -13.811,43.78 -13.811,43.78 0,0 -70,-20 -58.908,33.931 8.658,42.10102 57.692,0.371 81.474,17.52702 z"
         inkscape:connector-curvature="0"
         style="fill:#ffffff;stroke:#000000;stroke-width:20" />
      <path
         id="path3647"
         d="m 240.87792,675.28274 c 19.505,-46.82 18.228,-45.057 107.78403,-156.783 l -37.765,-26.979 c 0,0 -86.47903,136.914 -103.72203,145.029 -15.629,7.357 -42.466,5.293 -47.843,18.99 -11.025,28.1 33.316,37.609 33.316,37.609 0,0 -1.874,27.332 20.534,25.318 39.009,-3.508 17.42,-18.518 27.696,-43.184 z"
         inkscape:connector-curvature="0"
         style="fill:#ffffff;stroke:#000000;stroke-width:20" />
    </g>
    <path
       style="fill:none;stroke:#231f20;stroke-width:6.07416105"
       inkscape:connector-curvature="0"
       d="m 400.72885,418.11398 c 23.7366,16.05765 82.888,33.91083 82.888,33.91083"
       id="path3649" />
    <path
       style="fill:#ff0019;stroke:#000000;stroke-width:24.29664421"
       inkscape:connector-curvature="0"
       d="M 303.14245,513.17946"
       id="path3651" />
    <path
       sodipodi:nodetypes="cccccccc"
       inkscape:connector-curvature="0"
       d="m 454.46495,527.63469 c 3.8425,-26.04965 41.6634,-24.72663 41.3682,-65.51584 -0.1409,-19.5588 -1.3071,-119.34147 -131.593,-120.05337 l 0.9232,0 c -130.28469,0.7119 -130.02836,100.55774 -131.59307,120.05337 -3.61534,45.03383 40.60267,42.03301 45.81737,65.33712 12.8562,61.80476 22.2917,115.8024 91.023,117.27086 66.7954,0.45766 73.0667,-55.45666 84.0543,-117.09214 z"
       id="path3653"
       style="fill:#ee1e10;fill-opacity:1;stroke:#000000;stroke-width:20;stroke-miterlimit:4;stroke-dasharray:none" />
    <circle
       d="m 391.63101,362.33801 c 0,10.94573 -8.87327,19.819 -19.819,19.819 -10.94573,0 -19.819,-8.87327 -19.819,-19.819 0,-10.94573 8.87327,-19.819 19.819,-19.819 10.94573,0 19.819,8.87327 19.819,19.819 z"
       style="stroke:#000000;stroke-width:4"
       sodipodi:ry="19.819"
       sodipodi:rx="19.819"
       sodipodi:cy="362.33801"
       sodipodi:cx="371.81201"
       transform="matrix(1.2148322,0,0,1.2148322,-138.32261,38.651417)"
       cx="371.81201"
       cy="362.33801"
       r="19.819"
       id="circle3655" />
    <path
       d="m 494.20735,460.52751 c -0.9059,34.12909 -35.1332,47.52683 -35.1332,47.52683 -5.6308,4.79793 -35.2939,-10.58752 -62.8426,-29.22304 -35.0346,-23.70016 -95.6633,-120.5563 -95.6633,-120.5563 0,0 -2.2023,-14.38181 64.7325,-16.3377 66.9324,-1.95588 101.9563,41.60643 107.1193,50.11876 5.1655,8.51354 18.5137,28.77817 21.7873,68.47145 z"
       id="path3657"
       inkscape:connector-curvature="0"
       style="fill:#0c46ff;fill-opacity:1;stroke:#000000;stroke-width:20;stroke-miterlimit:4;stroke-dasharray:none"
       sodipodi:nodetypes="ccccscc" />
    <path
       style="stroke:#000000;stroke-width:24.29664421"
       inkscape:connector-curvature="0"
       d="m 364.70175,441.31363 c 0,0 -10.2908,74.07683 32.1651,71.25113 15.9204,-1.05933 46.1406,-14.72863 51.7944,-19.47619 4.6054,-3.86681 -11.4413,-42.97226 -35.1062,-54.41477 -24.7534,-11.96852 -48.8533,2.64105 -48.8533,2.63983"
       id="path3659" />
    <g
       transform="matrix(1.2148322,0,0,1.2148322,-138.32261,38.651417)"
       id="g3661">
      <path
         style="fill:none;stroke:#020202;stroke-width:7;stroke-linecap:round"
         inkscape:connector-curvature="0"
         d="m 379.054,446.319 c 0,0 22.375,12.583 39.75,12.583 17.45,0 38.275,-13.583 38.275,-13.583"
         id="path3663" />
      <line
         style="fill:none;stroke:#020202;stroke-width:7;stroke-linecap:round"
         x1="391.742"
         y1="441.069"
         x2="391.742"
         y2="462.569"
         id="line3665" />
      <line
         style="fill:none;stroke:#020202;stroke-width:7;stroke-linecap:round"
         x1="418.80399"
         y1="445.069"
         x2="418.80399"
         y2="466.569"
         id="line3667" />
      <line
         style="fill:none;stroke:#020202;stroke-width:7;stroke-linecap:round"
         x1="445.86499"
         y1="441.069"
         x2="445.86499"
         y2="462.569"
         id="line3669" />
    </g>
  </g>
  <g
     style="display:none"
     transform="translate(-46.846665,-178.41528)"
     id="g3671"
     inkscape:groupmode="layer"
     inkscape:label="0 copy#5">
    <g
       id="g3673"
       transform="matrix(0.70710678,-0.70710678,0.70710678,0.70710678,-232.8126,411.23645)">
      <path
         id="path3675"
         d="m 221.91592,348.09274 c 44.806,32.322 266.82803,285.788 276.42103,319.032 9.593,33.242 -0.866,49.114 28.375,53.248 35.173,4.973 36.099,-31.896 36.099,-31.896 0,0 63.539,-6.842 57.539,-33.842 -25,-45 -41.632,-13.512 -70,-14 -28.368,-0.488 -292.87703,-320.54302 -297.23203,-341.00002 -3.947,-18.542 -14.115,-51.116 -39.957,-46.78 -32.672,5.482 -13.811,43.78 -13.811,43.78 0,0 -70,-20 -58.908,33.931 8.658,42.10102 57.692,0.371 81.474,17.52702 z"
         inkscape:connector-curvature="0"
         style="fill:#ffffff;stroke:#000000;stroke-width:20" />
      <path
         id="path3677"
         d="m 240.87792,675.28274 c 19.505,-46.82 18.228,-45.057 107.78403,-156.783 l -37.765,-26.979 c 0,0 -86.47903,136.914 -103.72203,145.029 -15.629,7.357 -42.466,5.293 -47.843,18.99 -11.025,28.1 33.316,37.609 33.316,37.609 0,0 -1.874,27.332 20.534,25.318 39.009,-3.508 17.42,-18.518 27.696,-43.184 z"
         inkscape:connector-curvature="0"
         style="fill:#ffffff;stroke:#000000;stroke-width:20" />
    </g>
    <path
       style="fill:none;stroke:#231f20;stroke-width:6.07416105"
       inkscape:connector-curvature="0"
       d="m 400.72885,418.11398 c 23.7366,16.05765 82.888,33.91083 82.888,33.91083"
       id="path3679" />
    <path
       style="fill:#ff0019;stroke:#000000;stroke-width:24.29664421"
       inkscape:connector-curvature="0"
       d="M 303.14245,513.17946"
       id="path3681" />
    <path
       sodipodi:nodetypes="cccccccc"
       inkscape:connector-curvature="0"
       d="m 454.46495,527.63469 c 3.8425,-26.04965 41.6634,-24.72663 41.3682,-65.51584 -0.1409,-19.5588 -1.3071,-119.34147 -131.593,-120.05337 l 0.9232,0 c -130.28469,0.7119 -130.02836,100.55774 -131.59307,120.05337 -3.61534,45.03383 40.60267,42.03301 45.81737,65.33712 12.8562,61.80476 22.2917,115.8024 91.023,117.27086 66.7954,0.45766 73.0667,-55.45666 84.0543,-117.09214 z"
       id="path3683"
       style="fill:#ee1e10;fill-opacity:1;stroke:#000000;stroke-width:20;stroke-miterlimit:4;stroke-dasharray:none" />
    <circle
       d="m 391.63101,362.33801 c 0,10.94573 -8.87327,19.819 -19.819,19.819 -10.94573,0 -19.819,-8.87327 -19.819,-19.819 0,-10.94573 8.87327,-19.819 19.819,-19.819 10.94573,0 19.819,8.87327 19.819,19.819 z"
       style="stroke:#000000;stroke-width:4"
       sodipodi:ry="19.819"
       sodipodi:rx="19.819"
       sodipodi:cy="362.33801"
       sodipodi:cx="371.81201"
       transform="matrix(1.2148322,0,0,1.2148322,-138.32261,38.651417)"
       cx="371.81201"
       cy="362.33801"
       r="19.819"
       id="circle3685" />
    <path
       d="m 494.20735,460.52751 c -0.9059,34.12909 -35.1332,47.52683 -35.1332,47.52683 -5.6308,4.79793 -35.2939,-10.58752 -62.8426,-29.22304 -35.0346,-23.70016 -95.6633,-120.5563 -95.6633,-120.5563 0,0 -2.2023,-14.38181 64.7325,-16.3377 66.9324,-1.95588 101.9563,41.60643 107.1193,50.11876 5.1655,8.51354 18.5137,28.77817 21.7873,68.47145 z"
       id="path3687"
       inkscape:connector-curvature="0"
       style="fill:#0c46ff;fill-opacity:1;stroke:#000000;stroke-width:20;stroke-miterlimit:4;stroke-dasharray:none"
       sodipodi:nodetypes="ccccscc" />
    <path
       style="stroke:#000000;stroke-width:24.29664421"
       inkscape:connector-curvature="0"
       d="m 364.70175,441.31363 c 0,0 -10.2908,74.07683 32.1651,71.25113 15.9204,-1.05933 46.1406,-14.72863 51.7944,-19.47619 4.6054,-3.86681 -11.4413,-42.97226 -35.1062,-54.41477 -24.7534,-11.96852 -48.8533,2.64105 -48.8533,2.63983"
       id="path3689" />
    <g
       transform="matrix(1.2148322,0,0,1.2148322,-138.32261,38.651417)"
       id="g3691">
      <path
         style="fill:none;stroke:#020202;stroke-width:7;stroke-linecap:round"
         inkscape:connector-curvature="0"
         d="m 379.054,446.319 c 0,0 22.375,12.583 39.75,12.583 17.45,0 38.275,-13.583 38.275,-13.583"
         id="path3693" />
      <line
         style="fill:none;stroke:#020202;stroke-width:7;stroke-linecap:round"
         x1="391.742"
         y1="441.069"
         x2="391.742"
         y2="462.569"
         id="line3695" />
      <line
         style="fill:none;stroke:#020202;stroke-width:7;stroke-linecap:round"
         x1="418.80399"
         y1="445.069"
         x2="418.80399"
         y2="466.569"
         id="line3697" />
      <line
         style="fill:none;stroke:#020202;stroke-width:7;stroke-linecap:round"
         x1="445.86499"
         y1="441.069"
         x2="445.86499"
         y2="462.569"
         id="line3699" />
    </g>
  </g>
  <g
     style="display:inline"
     transform="translate(-46.846665,-178.41528)"
     id="g3701"
     inkscape:groupmode="layer"
     inkscape:label="0 copy#6">
    <g
       id="g3703"
       transform="matrix(0.92387953,-0.38268343,0.38268343,0.92387953,-157.30631,182.46357)">
      <path
         id="path3705"
         d="m 221.91592,348.09274 c 44.806,32.322 266.82803,285.788 276.42103,319.032 9.593,33.242 -0.866,49.114 28.375,53.248 35.173,4.973 36.099,-31.896 36.099,-31.896 0,0 63.539,-6.842 57.539,-33.842 -25,-45 -41.632,-13.512 -70,-14 -28.368,-0.488 -292.87703,-320.54302 -297.23203,-341.00002 -3.947,-18.542 -14.115,-51.116 -39.957,-46.78 -32.672,5.482 -13.811,43.78 -13.811,43.78 0,0 -70,-20 -58.908,33.931 8.658,42.10102 57.692,0.371 81.474,17.52702 z"
         inkscape:connector-curvature="0"
         style="fill:#ffffff;stroke:#000000;stroke-width:20" />
      <path
         id="path3707"
         d="m 240.87792,675.28274 c 19.505,-46.82 18.228,-45.057 107.78403,-156.783 l -37.765,-26.979 c 0,0 -86.47903,136.914 -103.72203,145.029 -15.629,7.357 -42.466,5.293 -47.843,18.99 -11.025,28.1 33.316,37.609 33.316,37.609 0,0 -1.874,27.332 20.534,25.318 39.009,-3.508 17.42,-18.518 27.696,-43.184 z"
         inkscape:connector-curvature="0"
         style="fill:#ffffff;stroke:#000000;stroke-width:20" />
    </g>
    <path
       style="fill:none;stroke:#231f20;stroke-width:6.07416105"
       inkscape:connector-curvature="0"
       d="m 400.72885,418.11398 c 23.7366,16.05765 82.888,33.91083 82.888,33.91083"
       id="path3709" />
    <path
       style="fill:#ff0019;stroke:#000000;stroke-width:24.29664421"
       inkscape:connector-curvature="0"
       d="M 303.14245,513.17946"
       id="path3711" />
    <path
       sodipodi:nodetypes="cccccccc"
       inkscape:connector-curvature="0"
       d="m 454.46495,527.63469 c 3.8425,-26.04965 41.6634,-24.72663 41.3682,-65.51584 -0.1409,-19.5588 -1.3071,-119.34147 -131.593,-120.05337 l 0.9232,0 c -130.28469,0.7119 -130.02836,100.55774 -131.59307,120.05337 -3.61534,45.03383 40.60267,42.03301 45.81737,65.33712 12.8562,61.80476 22.2917,115.8024 91.023,117.27086 66.7954,0.45766 73.0667,-55.45666 84.0543,-117.09214 z"
       id="path3713"
       style="fill:#ee1e10;fill-opacity:1;stroke:#000000;stroke-width:20;stroke-miterlimit:4;stroke-dasharray:none" />
    <circle
       d="m 391.63101,362.33801 c 0,10.94573 -8.87327,19.819 -19.819,19.819 -10.94573,0 -19.819,-8.87327 -19.819,-19.819 0,-10.94573 8.87327,-19.819 19.819,-19.819 10.94573,0 19.819,8.87327 19.819,19.819 z"
       style="stroke:#000000;stroke-width:4"
       sodipodi:ry="19.819"
       sodipodi:rx="19.819"
       sodipodi:cy="362.33801"
       sodipodi:cx="371.81201"
       transform="matrix(1.2148322,0,0,1.2148322,-138.32261,38.651417)"
       cx="371.81201"
       cy="362.33801"
       r="19.819"
       id="circle3715" />
    <path
       d="m 494.20735,460.52751 c -0.9059,34.12909 -35.1332,47.52683 -35.1332,47.52683 -5.6308,4.79793 -35.2939,-10.58752 -62.8426,-29.22304 -35.0346,-23.70016 -95.6633,-120.5563 -95.6633,-120.5563 0,0 -2.2023,-14.38181 64.7325,-16.3377 66.9324,-1.95588 101.9563,41.60643 107.1193,50.11876 5.1655,8.51354 18.5137,28.77817 21.7873,68.47145 z"
       id="path3717"
       inkscape:connector-curvature="0"
       style="fill:#0c46ff;fill-opacity:1;stroke:#000000;stroke-width:20;stroke-miterlimit:4;stroke-dasharray:none"
       sodipodi:nodetypes="ccccscc" />
    <path
       style="stroke:#000000;stroke-width:24.29664421"
       inkscape:connector-curvature="0"
       d="m 364.70175,441.31363 c 0,0 -10.2908,74.07683 32.1651,71.25113 15.9204,-1.05933 46.1406,-14.72863 51.7944,-19.47619 4.6054,-3.86681 -11.4413,-42.97226 -35.1062,-54.41477 -24.7534,-11.96852 -48.8533,2.64105 -48.8533,2.63983"
       id="path3719" />
    <g
       transform="matrix(1.2148322,0,0,1.2148322,-138.32261,38.651417)"
       id="g3721">
      <path
         style="fill:none;stroke:#020202;stroke-width:7;stroke-linecap:round"
         inkscape:connector-curvature="0"
         d="m 379.054,446.319 c 0,0 22.375,12.583 39.75,12.583 17.45,0 38.275,-13.583 38.275,-13.583"
         id="path3723" />
      <line
         style="fill:none;stroke:#020202;stroke-width:7;stroke-linecap:round"
         x1="391.742"
         y1="441.069"
         x2="391.742"
         y2="462.569"
         id="line3725" />
      <line
         style="fill:none;stroke:#020202;stroke-width:7;stroke-linecap:round"
         x1="418.80399"
         y1="445.069"
         x2="418.80399"
         y2="466.569"
         id="line3727" />
      <line
         style="fill:none;stroke:#020202;stroke-width:7;stroke-linecap:round"
         x1="445.86499"
         y1="441.069"
         x2="445.86499"
         y2="462.569"
         id="line3729" />
    </g>
  </g>
</svg>
