<?xml version="1.0" encoding="UTF-8" standalone="no"?>
<!-- Created with Inkscape (http://www.inkscape.org/) -->

<svg
   xmlns:dc="http://purl.org/dc/elements/1.1/"
   xmlns:cc="http://creativecommons.org/ns#"
   xmlns:rdf="http://www.w3.org/1999/02/22-rdf-syntax-ns#"
   xmlns:svg="http://www.w3.org/2000/svg"
   xmlns="http://www.w3.org/2000/svg"
   xmlns:sodipodi="http://sodipodi.sourceforge.net/DTD/sodipodi-0.dtd"
   xmlns:inkscape="http://www.inkscape.org/namespaces/inkscape"
   width="443.18298"
   height="431.35727"
   id="svg3271"
   version="1.1"
   inkscape:version="0.48.3.1 r9886"
   sodipodi:docname="New document 8">
  <defs
     id="defs3273" />
  <sodipodi:namedview
     id="base"
     pagecolor="#ffffff"
     bordercolor="#666666"
     borderopacity="1.0"
     inkscape:pageopacity="0.0"
     inkscape:pageshadow="2"
     inkscape:zoom="0.35"
     inkscape:cx="221.58246"
     inkscape:cy="215.66012"
     inkscape:document-units="px"
     inkscape:current-layer="layer1"
     showgrid="false"
     fit-margin-top="0"
     fit-margin-left="0"
     fit-margin-right="0"
     fit-margin-bottom="0"
     inkscape:window-width="1366"
     inkscape:window-height="738"
     inkscape:window-x="0"
     inkscape:window-y="1200"
     inkscape:window-maximized="1" />
  <metadata
     id="metadata3276">
    <rdf:RDF>
      <cc:Work
         rdf:about="">
        <dc:format>image/svg+xml</dc:format>
        <dc:type
           rdf:resource="http://purl.org/dc/dcmitype/StillImage" />
        <dc:title></dc:title>
      </cc:Work>
    </rdf:RDF>
  </metadata>
  <g
     inkscape:label="Layer 1"
     inkscape:groupmode="layer"
     id="layer1"
     transform="translate(-153.41754,-316.66502)">
    <g
       id="g3037"
       transform="matrix(1.1078563,0,0,1.1078563,-142.34135,211.5009)">
      <g
         inkscape:export-ydpi="90"
         inkscape:export-xdpi="90"
         transform="matrix(0.81402487,0,0,0.81402487,-22.286979,-61.076494)"
         id="g5983">
        <path
           inkscape:connector-curvature="0"
           id="path3113"
           d="M 561.448,311.533" />
        <path
           inkscape:connector-curvature="0"
           id="path3115"
           d="M 551.64,470.461" />
        <path
           style="fill:none;stroke:#231f20;stroke-width:5"
           inkscape:connector-curvature="0"
           id="path3113-8"
           d="M 545.11024,310.44858" />
        <path
           style="fill:#ff0019;stroke:#000000;stroke-width:20"
           inkscape:connector-curvature="0"
           id="path3115-1"
           d="M 535.30224,469.37658" />
        <g
           transform="matrix(1.2148322,0,0,1.2148322,-1536.2297,-5.2838945)"
           id="g5911">
          <path
             transform="matrix(0.82315895,0,0,0.82315895,848.73952,382.14347)"
             style="fill:#ffffff;stroke:#000000;stroke-width:10;stroke-miterlimit:4;stroke-dasharray:none"
             inkscape:connector-curvature="0"
             d="m 948.11027,-166.68918 c 44.806,32.322 266.82803,285.788 276.42103,319.032 9.593,33.242 -0.866,49.114 28.375,53.248 35.173,4.973 36.099,-31.896 36.099,-31.896 0,0 63.539,-6.842 57.539,-33.842 -25,-44.999998 -41.632,-13.512 -70,-14 -28.368,-0.488 -292.87703,-320.54301 -297.23203,-341.00001 -3.947,-18.542 -14.115,-51.116 -39.957,-46.78 -32.672,5.482 -13.811,43.78 -13.811,43.78 0,0 -70,-20 -58.908,33.931 8.658,42.10101 57.692,0.371 81.474,17.52701 z"
             id="path3107-06-2" />
          <path
             transform="matrix(0.82315895,0,0,0.82315895,848.73952,382.14347)"
             style="fill:#ffffff;stroke:#000000;stroke-width:10;stroke-miterlimit:4;stroke-dasharray:none"
             inkscape:connector-curvature="0"
             d="m 967.07227,160.50082 c 19.505,-46.82 18.228,-45.057 107.78403,-156.7829973 l -37.765,-26.9789997 c 0,0 -86.47903,136.913997 -103.72203,145.028997 -15.629,7.357 -42.466,5.293 -47.843,18.99 -11.025,28.1 33.316,37.609 33.316,37.609 0,0 -1.874,27.332 20.534,25.318 39.009,-3.508 17.42,-18.518 27.696,-43.184 z"
             id="path3109-9-4" />
          <path
             transform="matrix(0.82315895,0,0,0.82315895,848.73952,382.14347)"
             style="fill:none;stroke:#231f20;stroke-width:6.07416105"
             inkscape:connector-curvature="0"
             d="m 1126.9232,-96.667933 c 23.7366,16.057652 82.888,33.910827 82.888,33.910827"
             id="path3111-7-0" />
          <path
             transform="matrix(0.82315895,0,0,0.82315895,848.73952,382.14347)"
             style="fill:#ff0019;stroke:#000000;stroke-width:24.29664421"
             inkscape:connector-curvature="0"
             d="M 1029.3368,-1.6024513"
             id="path3115-3-8" />
          <path
             sodipodi:nodetypes="cccccccc"
             transform="matrix(0.82315895,0,0,0.82315895,848.73952,382.14347)"
             inkscape:connector-curvature="0"
             d="m 1180.6593,12.852772 c 3.8425,-26.049648 41.6634,-24.72663 41.3682,-65.515837 -0.1409,-19.558799 -1.3071,-119.341475 -131.593,-120.053365 l 0.9232,0 c -130.28469,0.71189 -130.02836,100.557737 -131.59307,120.053365 -3.61534,45.0338305 40.60267,42.033008 45.81737,65.337117 12.8562,61.804766 22.2917,115.802398 91.023,117.270858 66.7954,0.45766 73.0667,-55.456654 84.0543,-117.092138 z"
             id="path3117-5-0"
             style="fill:#ee1e10;fill-opacity:1;stroke:#000000;stroke-width:10;stroke-miterlimit:4;stroke-dasharray:none" />
          <circle
             d="m 391.63101,362.33801 c 0,10.94573 -8.87327,19.819 -19.819,19.819 -10.94573,0 -19.819,-8.87327 -19.819,-19.819 0,-10.94573 8.87327,-19.819 19.819,-19.819 10.94573,0 19.819,8.87327 19.819,19.819 z"
             style="stroke:#000000;stroke-width:4"
             sodipodi:ry="19.819"
             sodipodi:rx="19.819"
             sodipodi:cy="362.33801"
             sodipodi:cx="371.81201"
             transform="translate(1332.6514,-9.7876163)"
             cx="371.81201"
             cy="362.33801"
             r="19.819"
             id="circle3119-8-03" />
          <path
             transform="matrix(0.82315895,0,0,0.82315895,848.73952,382.14347)"
             d="m 1220.4017,-54.25441 c -0.9059,34.129094 -35.1332,47.5268365 -35.1332,47.5268365 -5.6308,4.797931 -35.2939,-10.5875185 -62.8426,-29.2230445 -35.0346,-23.700162 -95.6633,-120.556302 -95.6633,-120.556302 0,0 -2.2023,-14.38181 64.7325,-16.33769 66.9324,-1.95588 101.9563,41.60642 107.1193,50.11875 5.1655,8.51354 18.5137,28.778179 21.7873,68.47145 z"
             id="path3121-79-8"
             inkscape:connector-curvature="0"
             style="fill:#007fff;fill-opacity:1;stroke:#000000;stroke-width:10;stroke-miterlimit:4;stroke-dasharray:none"
             sodipodi:nodetypes="ccccscc" />
          <path
             transform="matrix(0.82315895,0,0,0.82315895,848.73952,382.14347)"
             style="stroke:#000000;stroke-width:24.29664421"
             inkscape:connector-curvature="0"
             d="m 1090.8961,-73.468282 c 0,0 -10.2908,74.07682468 32.1651,71.2511255 15.9204,-1.059334 46.1406,-14.7286265 51.7944,-19.4761905 4.6054,-3.866811 -11.4413,-42.972261 -35.1062,-54.414765 -24.7534,-11.968527 -48.8533,2.641045 -48.8533,2.63983"
             id="path3123-2-3" />
          <g
             transform="translate(1332.6514,-9.7876163)"
             id="g3125-8-1">
            <path
               style="fill:none;stroke:#020202;stroke-width:7;stroke-linecap:round"
               inkscape:connector-curvature="0"
               d="m 379.054,446.319 c 0,0 22.375,12.583 39.75,12.583 17.45,0 38.275,-13.583 38.275,-13.583"
               id="path3127-79-3" />
            <line
               style="fill:none;stroke:#020202;stroke-width:7;stroke-linecap:round"
               x1="391.742"
               y1="441.069"
               x2="391.742"
               y2="462.569"
               id="line3129-8-6" />
            <line
               style="fill:none;stroke:#020202;stroke-width:7;stroke-linecap:round"
               x1="418.80399"
               y1="445.069"
               x2="418.80399"
               y2="466.569"
               id="line3131-2-7" />
            <line
               style="fill:none;stroke:#020202;stroke-width:7;stroke-linecap:round"
               x1="445.86499"
               y1="441.069"
               x2="445.86499"
               y2="462.569"
               id="line3133-1-0" />
          </g>
        </g>
      </g>
    </g>
  </g>
</svg>
