<?xml version="1.0" encoding="UTF-8" standalone="no"?>
<!-- Generator: Adobe Illustrator 14.0.0, SVG Export Plug-In . SVG Version: 6.00 Build 43363)  -->

<svg
   xmlns:dc="http://purl.org/dc/elements/1.1/"
   xmlns:cc="http://creativecommons.org/ns#"
   xmlns:rdf="http://www.w3.org/1999/02/22-rdf-syntax-ns#"
   xmlns:svg="http://www.w3.org/2000/svg"
   xmlns="http://www.w3.org/2000/svg"
   xmlns:sodipodi="http://sodipodi.sourceforge.net/DTD/sodipodi-0.dtd"
   xmlns:inkscape="http://www.inkscape.org/namespaces/inkscape"
   version="1.1"
   id="Layer_1"
   sodipodi:docname="pyret-sticker.svg"
   inkscape:version="0.48.3.1 r9886"
   x="0px"
   y="0px"
   width="882.67389"
   height="797.6001"
   viewBox="0 0 882.67388 797.60011"
   enable-background="new 0 0 1156.442 1150.657"
   xml:space="preserve"
   inkscape:export-filename="/home/joe/Dropbox/Caitlin's Website/Pyret/pyret-sticker-lighter-blue.png"
   inkscape:export-xdpi="90"
   inkscape:export-ydpi="90"><metadata
   id="metadata3204"><rdf:RDF><cc:Work
       rdf:about=""><dc:format>image/svg+xml</dc:format><dc:type
         rdf:resource="http://purl.org/dc/dcmitype/StillImage" /><dc:title /></cc:Work></rdf:RDF></metadata><defs
   id="defs3202" />
<g
   id="g3144"
   transform="matrix(0.81907543,0,0,0.81907543,-23.606681,-52.891139)"
   style="stroke:#ffffff;stroke-width:0.99990791;stroke-miterlimit:4;stroke-opacity:0;stroke-dasharray:none">
	<g
   id="g3146"
   style="stroke:#ffffff;stroke-width:0.99990791;stroke-miterlimit:4;stroke-opacity:0;stroke-dasharray:none">
		<path
   d="m 133.168,120.518 c -19.124,10.613 -23.154,-8.302 -13.286,-23.151 6.29,-1.535 12.925,-0.554 18.312,2.958 5.504,19.471 -14.344,38.516 -18.773,14.276 -2.437,-13.339 10.065,-31.45 22.492,-21.38 5.372,4.353 7.943,39.025 -4.751,33.449 43.048,18.908 105.927,20.306 152.548,23.269 66.694,4.238 133.737,1.684 200.384,-2.291 126.402,-7.54 252.676,-25.853 379.316,-27.884 57.818,-2.958 110.127,-11.833 167.943,0 -22.025,20.708 -24.777,44.375 -60.57,59.167 8.262,8.875 16.521,23.667 24.779,32.541 -22.025,8.875 -44.051,47.333 -60.57,56.208 41.299,62.125 71.584,97.625 148.672,106.5 -41.299,50.292 -112.881,35.5 -145.916,97.625 35.789,14.792 77.088,29.584 115.633,50.292 -16.521,8.875 -41.299,38.458 -60.57,47.333 8.26,5.917 19.271,23.667 30.285,32.542 -16.52,11.834 -35.791,53.25 -57.816,65.084 24.777,5.916 55.062,29.584 85.348,29.584 l 21.729,6.215 c -38.545,26.625 -72.455,50.417 -111,79.999 52.312,14.793 83.766,20.285 136.074,32.119 C 913.464,971.764 605.111,883.014 376.598,909.639 318.782,918.514 236.186,924.43 178.37,936.264 170.111,838.78 230.681,702.556 230.681,590.14 227.927,483.638 214.16,347.556 189.382,241.056 178.369,199.639 159.097,158.222 142.578,119.764"
   id="path3148"
   inkscape:connector-curvature="0"
   style="stroke:#ffffff;stroke-width:0.99990791;stroke-miterlimit:4;stroke-opacity:0;stroke-dasharray:none" />
		<g
   id="g3150"
   style="stroke:#ffffff;stroke-width:0.99990791;stroke-miterlimit:4;stroke-opacity:0;stroke-dasharray:none">
			<path
   d="m 132.196,114.294 c -3.684,1.915 -13.141,5.772 -13.169,-1.526 -0.013,-3.337 1.514,-6.678 3.163,-9.491 0.23,-0.392 6.26,0.318 7.022,0.415 2.74,0.348 5.317,1.727 7.638,3.133 -0.863,-1.059 -1.725,-2.119 -2.588,-3.178 0.94,3.715 -1.018,18.117 -7.743,15.159 -3.198,-1.407 -2.997,-8.11 -2.464,-10.807 0.888,-4.493 4.001,-8.785 8.313,-10.42 2.05,-0.777 4.12,-0.051 5.965,0.861 0.381,0.188 1.833,1.668 1.041,0.594 0.817,1.11 0.211,0.216 0.571,1.134 1.11,2.83 1.484,6.254 1.759,9.692 0.269,3.35 -0.017,6.312 -0.805,9.371 0.005,-0.021 -0.949,1.295 -0.505,0.875 0.008,-0.008 -0.707,0.287 -1.842,-0.159 -6.389,-2.503 -8.167,11.109 -2.782,13.443 23.769,10.302 49.756,14.804 75.338,17.819 26.046,3.07 52.27,4.114 78.429,5.768 66.094,4.18 132.358,1.755 198.403,-2.125 65.956,-3.874 131.686,-10.661 197.473,-16.615 32.898,-2.978 65.818,-5.704 98.785,-7.804 32.836,-2.091 65.771,-2.208 98.584,-4.333 51.719,-3.349 103,-9.619 154.4,0.64 -0.666,-4.354 -1.332,-8.708 -2,-13.062 -9.797,9.377 -16.965,20.633 -24.971,31.468 -9.061,12.264 -20.404,21.171 -34.471,27.114 -4.617,1.951 -4.258,9.398 -1.391,12.557 9.18,10.12 15.576,22.424 24.77,32.559 0.467,-4.198 0.932,-8.396 1.396,-12.595 -13.051,5.51 -22.891,16.81 -32.086,27.17 -5.09,5.734 -9.988,11.639 -15.197,17.268 -3.924,4.24 -8.199,8.875 -13.293,11.729 -3.773,2.114 -4.65,8.031 -2.303,11.562 17.896,26.916 36.686,54.435 62.252,74.712 25.844,20.495 57.215,30.098 89.604,33.908 -0.98,-3.983 -1.965,-7.967 -2.945,-11.951 -19.439,23.351 -48.307,32.706 -75.725,43.149 -13.652,5.201 -27.008,11.102 -39.133,19.341 -13.086,8.891 -23.674,21.042 -31.199,34.913 -1.811,3.338 -2.754,10.297 1.812,12.19 38.846,16.102 78.457,30.475 115.627,50.318 0.115,-4.686 0.23,-9.373 0.346,-14.059 -22.498,12.477 -37.217,36.226 -60.566,47.349 -4.182,1.991 -5.33,10.36 -1.471,13.267 11.842,8.914 18.85,23.048 30.281,32.548 0.104,-4.191 0.205,-8.383 0.309,-12.574 -11.029,8.156 -18.73,20.992 -26.627,31.965 -8.312,11.557 -17.27,25.297 -30.027,32.398 -3.814,2.125 -6.094,12.633 -0.346,14.07 23.312,5.832 43.383,20.49 66.619,26.812 8.104,2.205 16.223,1.922 24.104,4.186 5.459,1.564 10.916,3.131 16.375,4.697 -0.27,-4.391 -0.539,-8.777 -0.809,-13.168 -37.545,25.898 -74.812,52.172 -111.035,79.899 -3.207,2.455 -4.033,12.006 0.82,13.379 45.33,12.822 91.43,22.125 137.344,32.523 -0.709,-4.627 -1.418,-9.256 -2.127,-13.883 -73.885,60.656 -167.904,83.883 -261.424,91.363 -99.352,7.949 -199.072,-0.279 -298.445,-3.346 -47.227,-1.457 -94.603,-1.896 -141.731,1.947 -24.21,1.975 -48.217,5.895 -72.339,8.719 -27.568,3.229 -55.173,6.141 -82.71,9.631 -22.581,2.861 -45.163,6.111 -67.497,10.516 2.435,2.207 4.87,4.414 7.304,6.619 -3.801,-49.025 8.286,-99.041 19.227,-146.447 12.366,-53.581 26.266,-107.03 31.608,-161.901 2.539,-26.078 1.466,-52.035 0.2,-78.153 -1.382,-28.509 -3.384,-56.99 -5.907,-85.419 -5.127,-57.766 -12.417,-115.4 -22.971,-172.436 -5.387,-29.113 -11.457,-57.895 -21.275,-85.878 -10.623,-30.275 -23.979,-59.513 -36.646,-88.967 -1.565,-3.639 -5.224,-7.187 -9.114,-3.892 -3.62,3.065 -4.579,9.687 -2.757,13.923 12.419,28.876 25.446,57.506 36.103,87.1 9.701,26.94 15.567,54.636 20.89,82.712 10.795,56.94 18.211,114.542 23.459,172.246 2.529,27.812 4.488,55.673 5.854,83.566 1.28,26.127 2.032,51.95 -0.561,78.026 -5.392,54.227 -19.938,107.275 -31.99,160.272 -11.12,48.9 -22.244,99.432 -17.939,149.867 0.337,3.945 3.204,7.479 7.304,6.619 52.545,-10.992 106.442,-15.041 159.66,-21.588 23.523,-2.895 46.852,-6.467 70.511,-8.146 23.265,-1.652 46.598,-2.324 69.918,-2.48 99.229,-0.662 198.301,8.068 297.55,5.787 94.148,-2.166 191.73,-14.531 275.201,-61.084 18.756,-10.459 36.553,-22.598 53.135,-36.238 4.121,-3.393 3.525,-12.611 -2.127,-13.885 -45.064,-10.148 -90.305,-19.203 -134.805,-31.711 0.273,4.459 0.547,8.918 0.82,13.377 36.197,-27.795 73.441,-54.134 110.965,-80.101 3.324,-2.301 3.834,-11.844 -0.809,-13.168 -5.461,-1.557 -10.92,-3.111 -16.381,-4.67 -7.941,-2.264 -16.07,-2.123 -24.096,-4.221 -23.312,-6.096 -43.229,-21.176 -66.58,-27.01 -0.115,4.689 -0.23,9.381 -0.344,14.07 13.453,-7.498 22.988,-20.479 31.908,-32.686 8.188,-11.203 15.736,-24.736 27.066,-33.119 3.377,-2.498 3.521,-9.906 0.309,-12.574 -11.434,-9.494 -18.441,-23.625 -30.285,-32.535 -0.49,4.422 -0.98,8.844 -1.471,13.266 11.807,-5.627 21.727,-14.728 31.371,-23.383 9.195,-8.251 18.303,-17.905 29.201,-23.935 4.627,-2.561 5.312,-11.4 0.344,-14.059 -37.156,-19.887 -76.729,-34.301 -115.639,-50.266 0.865,3.58 1.73,7.159 2.596,10.738 14.848,-27.542 41.732,-40.593 69.752,-51.23 28.039,-10.645 55.51,-21.479 75.244,-45.165 2.648,-3.18 2.006,-11.365 -2.945,-11.951 -31.109,-3.677 -61.111,-12.969 -85.91,-32.656 -24.49,-19.443 -42.416,-45.959 -59.576,-71.723 -0.77,3.854 -1.535,7.708 -2.303,11.562 11.326,-6.361 19.613,-17.547 27.973,-27.208 9.23,-10.669 19.256,-23.396 32.59,-29.041 4.627,-1.959 4.275,-9.426 1.396,-12.595 -9.186,-10.108 -15.588,-22.401 -24.785,-32.523 -0.465,4.186 -0.93,8.372 -1.393,12.557 14.586,-6.179 26.549,-15.257 36.4,-27.628 8.533,-10.715 15.303,-22.601 25.297,-32.124 3.49,-3.325 3.623,-11.925 -2,-13.062 -31.207,-6.31 -62.52,-6.294 -94.182,-5.02 -31.887,1.283 -63.605,4.428 -95.52,5.359 -66.035,1.928 -131.861,7.97 -197.607,14.13 -65.8,6.166 -131.577,12.115 -197.599,15.369 -33.061,1.629 -66.158,2.614 -99.261,2.412 -30.154,-0.183 -60.208,-1.949 -90.299,-3.707 -41.604,-2.43 -85.747,-4.604 -124.504,-21.381 -0.927,4.481 -1.855,8.962 -2.782,13.443 17.16,6.721 15.701,-25.321 13.938,-34.067 -1.648,-8.178 -5.134,-14.613 -14.126,-15.966 -10.707,-1.611 -17.509,11.239 -19.967,19.511 -2.571,8.654 -1.119,23.72 7.56,28.805 7.551,4.424 14.162,-3.845 17.236,-9.752 2.226,-4.277 3.036,-9.374 3.212,-14.134 0.098,-2.636 -0.236,-5.334 -0.765,-7.911 -0.839,-4.096 -2.439,-5.733 -6.11,-7.582 -5.553,-2.796 -11.972,-2.68 -17.88,-1.42 -4.157,0.887 -6.726,11.208 -7.631,14.641 -1.756,6.658 -1.448,15.674 3.531,20.969 5.364,5.705 13.308,3.51 19.373,0.261 4.754,-2.545 3.42,-15.23 -1.941,-12.444 l 0,0 z"
   id="path3152"
   inkscape:connector-curvature="0"
   style="stroke:#ffffff;stroke-width:0.99990791;stroke-miterlimit:4;stroke-opacity:0;stroke-dasharray:none" />
		</g>
	</g>
	<g
   id="g3154"
   style="stroke:#ffffff;stroke-width:0.99990791;stroke-miterlimit:4;stroke-opacity:0;stroke-dasharray:none">
		<path
   d="m 167.204,951.265 c -39.004,-9.002 -66.007,-18.002 -99.01,12 27.002,-6 66.006,-9 93.009,-18.002 -27.003,42.006 -21.002,57.006 -24.002,96.01 27.003,-30.002 33.003,-66.006 27.003,-105.01"
   id="path3156"
   inkscape:connector-curvature="0"
   style="stroke:#ffffff;stroke-width:0.99990791;stroke-miterlimit:4;stroke-opacity:0;stroke-dasharray:none" />
		<g
   id="g3158"
   style="stroke:#ffffff;stroke-width:0.99990791;stroke-miterlimit:4;stroke-opacity:0;stroke-dasharray:none">
			<path
   d="m 168.481,945.097 c -17.327,-4.09 -34.912,-9.309 -52.869,-9.102 -18.911,0.219 -35.721,8.84 -49.544,21.311 -3.489,3.146 -3.371,14.041 3.161,12.582 30.831,-6.891 62.761,-8.635 92.948,-18.396 -1.285,-3.617 -2.57,-7.232 -3.854,-10.85 -10.172,15.848 -18.897,32.625 -22.194,51.33 -2.852,16.184 -2.056,32.854 -3.236,49.195 -0.317,4.387 3.544,8.996 7.242,4.809 12.882,-14.59 21.814,-31.727 26.571,-50.584 2.372,-9.404 3.463,-19.152 3.787,-28.83 0.34,-10.203 -1.366,-20.072 -1.851,-30.191 -0.128,-2.668 -1.522,-8.17 -5.457,-6.637 -3.733,1.453 -3.708,6.697 -2.895,9.836 2.049,7.9 1.873,17.123 1.811,25.232 -0.066,8.617 -1.067,17.164 -2.997,25.559 -4,17.395 -13.019,32.975 -24.835,46.209 2.414,1.604 4.828,3.205 7.242,4.809 1.136,-14.805 0.585,-29.859 2.77,-44.562 2.544,-17.125 10.64,-32.473 19.805,-46.932 1.854,-2.924 1.917,-12.762 -3.854,-10.85 -30.036,9.951 -62.272,11.008 -93.071,17.607 1.054,4.195 2.107,8.389 3.161,12.582 13.326,-11.84 28.167,-19.617 46.244,-19.969 17.048,-0.332 34.009,4.688 50.481,8.432 4.964,1.129 6.194,-11.465 1.434,-12.59 l 0,0 z"
   id="path3160"
   inkscape:connector-curvature="0"
   style="stroke:#ffffff;stroke-width:0.99990791;stroke-miterlimit:4;stroke-opacity:0;stroke-dasharray:none" />
		</g>
	</g>
	<g
   id="g3162"
   style="stroke:#ffffff;stroke-width:0.99990791;stroke-miterlimit:4;stroke-opacity:0;stroke-dasharray:none">
		<path
   d="m 122.827,105.943 c -36.003,-21.002 -57.006,-42.004 -87.009,-3 21.002,-6 69.007,0 90.009,-3 l 0,0 c -21.002,27.003 -27.002,60.006 -42.004,87.009 33.003,-24.002 36.003,-48.005 45.004,-84.008"
   id="path3164"
   inkscape:connector-curvature="0"
   style="stroke:#ffffff;stroke-width:0.99990791;stroke-miterlimit:4;stroke-opacity:0;stroke-dasharray:none" />
		<g
   id="g3166"
   style="stroke:#ffffff;stroke-width:0.99990791;stroke-miterlimit:4;stroke-opacity:0;stroke-dasharray:none">
			<path
   d="M 124.062,99.979 C 108.838,91.047 93.819,79.176 76.215,75.5 57.916,71.678 43.409,85.165 33.02,98.455 c -2.318,2.965 -1.63,12.006 3.745,10.54 14.225,-3.881 30.034,-2.793 44.617,-2.509 14.654,0.285 29.719,1.505 44.298,-0.492 -0.854,-3.466 -1.708,-6.932 -2.562,-10.397 -9.863,12.931 -16.967,27.291 -23.125,42.294 -6.115,14.9 -11.257,30.317 -19.027,44.478 -1.775,3.23 -1.059,14.482 4.842,10.144 13.975,-10.274 25.219,-22.88 32.594,-38.644 7.229,-15.452 10.379,-32.658 14.483,-49.107 1.687,-6.759 -6.059,-11.917 -8.115,-3.636 -3.664,14.751 -6.596,29.837 -12.534,43.894 -6.364,15.065 -17.364,26.76 -30.397,36.371 1.614,3.382 3.229,6.764 4.843,10.146 15.509,-28.344 21.918,-61.3 41.856,-87.246 1.688,-2.196 2.047,-11.008 -2.562,-10.397 -15.044,1.992 -30.6,0.619 -45.711,0.256 -14.919,-0.358 -30.844,-1.235 -45.392,2.744 1.248,3.513 2.497,7.026 3.745,10.54 C 48.383,94.93 61.082,84.04 77.867,88.43 c 15.818,4.137 29.826,15.337 43.727,23.481 5.01,2.933 7.004,-9.269 2.468,-11.932 l 0,0 z"
   id="path3168"
   inkscape:connector-curvature="0"
   style="stroke:#ffffff;stroke-width:0.99990791;stroke-miterlimit:4;stroke-opacity:0;stroke-dasharray:none" />
		</g>
	</g>
	<g
   id="g3170"
   style="stroke:#ffffff;stroke-width:0.99990791;stroke-miterlimit:4;stroke-opacity:0;stroke-dasharray:none">
		<path
   d="m 163.966,955.423 c 1.5,1.5 4.5,1.5 6,1.5"
   id="path3172"
   inkscape:connector-curvature="0"
   style="stroke:#ffffff;stroke-width:0.99990791;stroke-miterlimit:4;stroke-opacity:0;stroke-dasharray:none" />
		<g
   id="g3174"
   style="stroke:#ffffff;stroke-width:0.99990791;stroke-miterlimit:4;stroke-opacity:0;stroke-dasharray:none">
			<path
   d="m 162.416,959.173 c 2.08,1.799 4.81,2.039 7.447,1.924 3.727,-0.162 3.949,-8.18 0.205,-8.35 -0.842,-0.037 -1.681,-0.1 -2.517,-0.217 -0.698,-0.098 -1.593,-0.436 -2.036,-0.859 -1.525,-1.461 -3.336,-0.1 -3.988,1.477 -0.742,1.793 -0.706,4.646 0.889,6.025 l 0,0 z"
   id="path3176"
   inkscape:connector-curvature="0"
   style="stroke:#ffffff;stroke-width:0.99990791;stroke-miterlimit:4;stroke-opacity:0;stroke-dasharray:none" />
		</g>
	</g>
	<g
   id="g3178"
   style="stroke:#ffffff;stroke-width:0.99990791;stroke-miterlimit:4;stroke-opacity:0;stroke-dasharray:none">
		<path
   d="m 180.445,927.425 c -25.349,13.648 -42.899,17.549 -5.85,38.998 15.6,-21.449 -3.899,-21.449 -5.85,-33.15"
   id="path3180"
   inkscape:connector-curvature="0"
   style="stroke:#ffffff;stroke-width:0.99990791;stroke-miterlimit:4;stroke-opacity:0;stroke-dasharray:none" />
		<g
   id="g3182"
   style="stroke:#ffffff;stroke-width:0.99990791;stroke-miterlimit:4;stroke-opacity:0;stroke-dasharray:none">
			<path
   d="m 179.824,923.449 c -9.333,4.525 -24.14,8.328 -28.852,18.693 -6.184,13.6 13.722,24.047 22.616,29.145 1.206,0.691 2.609,-0.262 3.278,-1.223 5.039,-7.246 9.482,-16.297 5.296,-24.982 -2.283,-4.736 -8.943,-7.982 -9.883,-13.188 -1.292,-7.15 -8.398,-3.057 -7.067,2.758 1.313,5.736 4.668,9.314 8.794,13.268 1.364,1.307 2.962,2.795 3.305,4.729 0.583,3.289 -3.275,7.748 -4.987,10.133 1.093,-0.406 2.185,-0.814 3.278,-1.223 -5.582,-3.33 -11.226,-6.748 -16.015,-11.184 -1.163,-1.074 -2.367,-2.324 -2.952,-3.818 0.32,0.818 -0.184,0.818 0.542,-0.178 2.095,-2.881 6.165,-4.771 9.188,-6.441 4.961,-2.74 9.811,-5.67 14.701,-8.537 2.821,-1.655 2.382,-9.708 -1.242,-7.952 l 0,0 z"
   id="path3184"
   inkscape:connector-curvature="0"
   style="stroke:#ffffff;stroke-width:0.99990791;stroke-miterlimit:4;stroke-opacity:0;stroke-dasharray:none" />
		</g>
	</g>
</g>
<sodipodi:namedview
   id="namedview3135"
   borderopacity="1"
   gridtolerance="10"
   bordercolor="#666666"
   guidetolerance="10"
   pagecolor="#ffffff"
   inkscape:pageshadow="2"
   inkscape:window-x="0"
   inkscape:window-width="1366"
   inkscape:pageopacity="0"
   inkscape:cy="297.43433"
   inkscape:current-layer="g3125-8-1"
   inkscape:window-height="738"
   objecttolerance="10"
   inkscape:window-y="1200"
   showgrid="false"
   inkscape:zoom="0.5"
   inkscape:cx="96.646814"
   inkscape:window-maximized="1"
   fit-margin-top="0"
   fit-margin-left="0"
   fit-margin-right="0"
   fit-margin-bottom="0">
	</sodipodi:namedview>













<rect
   style="fill:none"
   x="57.437527"
   y="645.19153"
   width="1134.5081"
   height="0"
   id="rect3198-2" /><g
   id="g3072"
   transform="matrix(0.9067748,0,0,0.9067748,-79.681681,-338.10679)"
   style="fill:#ffffff"><text
   style="font-size:215.36083984px;fill:#ffffff;font-family:GillSansMTPro-Heavy"
   y="1046.2783"
   x="289.72845"
   id="text3200"
   font-size="138.397"><tspan
     id="tspan3206"
     style="font-style:normal;font-variant:normal;font-weight:bold;font-stretch:normal;fill:#ffffff;font-family:Treasure Map Deadhand;-inkscape-font-specification:Treasure Map Deadhand">pyret</tspan></text>



<text
   style="font-size:237.97340393px;fill:#ffffff;font-family:GillSansMTPro-Heavy"
   y="1042.3779"
   x="695.90967"
   id="text3200-0"
   font-size="138.397"><tspan
     id="tspan3206-1"
     style="font-style:normal;font-variant:normal;font-weight:bold;font-stretch:normal;fill:#ffffff;font-family:Treasure Map Deadhand;-inkscape-font-specification:Treasure Map Deadhand">or</tspan></text>



<text
   style="font-size:157.2543335px;fill:#ffffff;font-family:GillSansMTPro-Heavy"
   y="1036.5444"
   x="627.10577"
   id="text3200-0-4"
   font-size="138.397"><tspan
     id="tspan3206-1-6"
     style="font-style:normal;font-variant:normal;font-weight:bold;font-stretch:normal;fill:#ffffff;font-family:Inconsolata;-inkscape-font-specification:Inconsolata">.</tspan></text>



<flowRoot
   xml:space="preserve"
   id="flowRoot3826"
   style="font-size:40px;font-style:normal;font-weight:normal;line-height:125%;letter-spacing:0px;word-spacing:0px;fill:#ffffff;fill-opacity:1;stroke:none;font-family:Sans"
   transform="matrix(1.1918238,0,0,1.1918238,1115.586,308.02364)"><flowRegion
     id="flowRegion3828"><rect
       id="rect3830"
       width="114"
       height="318"
       x="-254"
       y="455.6001"
       style="fill:#ffffff;fill-opacity:1" /></flowRegion><flowPara
     id="flowPara3832"
     style="font-size:180.59999084px;font-style:normal;font-variant:normal;font-weight:normal;font-stretch:normal;fill:#ffffff;fill-opacity:1;font-family:Treasure Map Deadhand;-inkscape-font-specification:Treasure Map Deadhand">g</flowPara></flowRoot></g><g
   id="g3037"
   transform="matrix(1.1078563,0,0,1.1078563,-60.789955,-28.237724)"><g
     inkscape:export-ydpi="90"
     inkscape:export-xdpi="90"
     transform="matrix(0.81402487,0,0,0.81402487,-22.286979,-61.076494)"
     id="g5983"><path
       inkscape:connector-curvature="0"
       id="path3113"
       d="M 561.448,311.533" /><path
       inkscape:connector-curvature="0"
       id="path3115"
       d="M 551.64,470.461" /><path
       style="fill:none;stroke:#231f20;stroke-width:5"
       inkscape:connector-curvature="0"
       id="path3113-8"
       d="M 545.11024,310.44858" /><path
       style="fill:#ff0019;stroke:#000000;stroke-width:20"
       inkscape:connector-curvature="0"
       id="path3115-1"
       d="M 535.30224,469.37658" /><g
       transform="matrix(1.2148322,0,0,1.2148322,-1536.2297,-5.2838945)"
       id="g5911"><path
         transform="matrix(0.82315895,0,0,0.82315895,848.73952,382.14347)"
         style="fill:#ffffff;stroke:#000000;stroke-width:10;stroke-miterlimit:4;stroke-dasharray:none"
         inkscape:connector-curvature="0"
         d="m 948.11027,-166.68918 c 44.806,32.322 266.82803,285.788 276.42103,319.032 9.593,33.242 -0.866,49.114 28.375,53.248 35.173,4.973 36.099,-31.896 36.099,-31.896 0,0 63.539,-6.842 57.539,-33.842 -25,-44.999998 -41.632,-13.512 -70,-14 -28.368,-0.488 -292.87703,-320.54301 -297.23203,-341.00001 -3.947,-18.542 -14.115,-51.116 -39.957,-46.78 -32.672,5.482 -13.811,43.78 -13.811,43.78 0,0 -70,-20 -58.908,33.931 8.658,42.10101 57.692,0.371 81.474,17.52701 z"
         id="path3107-06-2" /><path
         transform="matrix(0.82315895,0,0,0.82315895,848.73952,382.14347)"
         style="fill:#ffffff;stroke:#000000;stroke-width:10;stroke-miterlimit:4;stroke-dasharray:none"
         inkscape:connector-curvature="0"
         d="m 967.07227,160.50082 c 19.505,-46.82 18.228,-45.057 107.78403,-156.7829973 l -37.765,-26.9789997 c 0,0 -86.47903,136.913997 -103.72203,145.028997 -15.629,7.357 -42.466,5.293 -47.843,18.99 -11.025,28.1 33.316,37.609 33.316,37.609 0,0 -1.874,27.332 20.534,25.318 39.009,-3.508 17.42,-18.518 27.696,-43.184 z"
         id="path3109-9-4" /><path
         transform="matrix(0.82315895,0,0,0.82315895,848.73952,382.14347)"
         style="fill:none;stroke:#231f20;stroke-width:6.07416105"
         inkscape:connector-curvature="0"
         d="m 1126.9232,-96.667933 c 23.7366,16.057652 82.888,33.910827 82.888,33.910827"
         id="path3111-7-0" /><path
         transform="matrix(0.82315895,0,0,0.82315895,848.73952,382.14347)"
         style="fill:#ff0019;stroke:#000000;stroke-width:24.29664421"
         inkscape:connector-curvature="0"
         d="M 1029.3368,-1.6024513"
         id="path3115-3-8" /><path
         sodipodi:nodetypes="cccccccc"
         transform="matrix(0.82315895,0,0,0.82315895,848.73952,382.14347)"
         inkscape:connector-curvature="0"
         d="m 1180.6593,12.852772 c 3.8425,-26.049648 41.6634,-24.72663 41.3682,-65.515837 -0.1409,-19.558799 -1.3071,-119.341475 -131.593,-120.053365 l 0.9232,0 c -130.28469,0.71189 -130.02836,100.557737 -131.59307,120.053365 -3.61534,45.0338305 40.60267,42.033008 45.81737,65.337117 12.8562,61.804766 22.2917,115.802398 91.023,117.270858 66.7954,0.45766 73.0667,-55.456654 84.0543,-117.092138 z"
         id="path3117-5-0"
         style="fill:#ee1e10;fill-opacity:1;stroke:#000000;stroke-width:10;stroke-miterlimit:4;stroke-dasharray:none" /><circle
         d="m 391.63101,362.33801 c 0,10.94573 -8.87327,19.819 -19.819,19.819 -10.94573,0 -19.819,-8.87327 -19.819,-19.819 0,-10.94573 8.87327,-19.819 19.819,-19.819 10.94573,0 19.819,8.87327 19.819,19.819 z"
         style="stroke:#000000;stroke-width:4"
         sodipodi:ry="19.819"
         sodipodi:rx="19.819"
         sodipodi:cy="362.33801"
         sodipodi:cx="371.81201"
         transform="translate(1332.6514,-9.7876163)"
         cx="371.81201"
         cy="362.33801"
         r="19.819"
         id="circle3119-8-03" /><path
         transform="matrix(0.82315895,0,0,0.82315895,848.73952,382.14347)"
         d="m 1220.4017,-54.25441 c -0.9059,34.129094 -35.1332,47.5268365 -35.1332,47.5268365 -5.6308,4.797931 -35.2939,-10.5875185 -62.8426,-29.2230445 -35.0346,-23.700162 -95.6633,-120.556302 -95.6633,-120.556302 0,0 -2.2023,-14.38181 64.7325,-16.33769 66.9324,-1.95588 101.9563,41.60642 107.1193,50.11875 5.1655,8.51354 18.5137,28.778179 21.7873,68.47145 z"
         id="path3121-79-8"
         inkscape:connector-curvature="0"
         style="fill:#007fff;fill-opacity:1;stroke:#000000;stroke-width:10;stroke-miterlimit:4;stroke-dasharray:none"
         sodipodi:nodetypes="ccccscc" /><path
         transform="matrix(0.82315895,0,0,0.82315895,848.73952,382.14347)"
         style="stroke:#000000;stroke-width:24.29664421"
         inkscape:connector-curvature="0"
         d="m 1090.8961,-73.468282 c 0,0 -10.2908,74.07682468 32.1651,71.2511255 15.9204,-1.059334 46.1406,-14.7286265 51.7944,-19.4761905 4.6054,-3.866811 -11.4413,-42.972261 -35.1062,-54.414765 -24.7534,-11.968527 -48.8533,2.641045 -48.8533,2.63983"
         id="path3123-2-3" /><g
         transform="translate(1332.6514,-9.7876163)"
         id="g3125-8-1"><path
           style="fill:none;stroke:#020202;stroke-width:7;stroke-linecap:round"
           inkscape:connector-curvature="0"
           d="m 379.054,446.319 c 0,0 22.375,12.583 39.75,12.583 17.45,0 38.275,-13.583 38.275,-13.583"
           id="path3127-79-3" /><line
           style="fill:none;stroke:#020202;stroke-width:7;stroke-linecap:round"
           x1="391.742"
           y1="441.069"
           x2="391.742"
           y2="462.569"
           id="line3129-8-6" /><line
           style="fill:none;stroke:#020202;stroke-width:7;stroke-linecap:round"
           x1="418.80399"
           y1="445.069"
           x2="418.80399"
           y2="466.569"
           id="line3131-2-7" /><line
           style="fill:none;stroke:#020202;stroke-width:7;stroke-linecap:round"
           x1="445.86499"
           y1="441.069"
           x2="445.86499"
           y2="462.569"
           id="line3133-1-0" /></g></g></g></g></svg>