<?xml version="1.0" encoding="UTF-8" standalone="no"?>
<!-- Created with Inkscape (http://www.inkscape.org/) -->

<svg
   xmlns:dc="http://purl.org/dc/elements/1.1/"
   xmlns:cc="http://creativecommons.org/ns#"
   xmlns:rdf="http://www.w3.org/1999/02/22-rdf-syntax-ns#"
   xmlns:svg="http://www.w3.org/2000/svg"
   xmlns="http://www.w3.org/2000/svg"
   xmlns:sodipodi="http://sodipodi.sourceforge.net/DTD/sodipodi-0.dtd"
   xmlns:inkscape="http://www.inkscape.org/namespaces/inkscape"
   width="750"
   height="250"
   id="svg3160"
   version="1.1"
   inkscape:version="0.48.3.1 r9886"
   sodipodi:docname="pyret-banner.svg">
  <defs
     id="defs3162" />
  <sodipodi:namedview
     id="base"
     pagecolor="#ffffff"
     bordercolor="#666666"
     borderopacity="1.0"
     inkscape:pageopacity="0.0"
     inkscape:pageshadow="2"
     inkscape:zoom="1.4"
     inkscape:cx="390.11364"
     inkscape:cy="104.83335"
     inkscape:document-units="px"
     inkscape:current-layer="layer1"
     showgrid="false"
     showguides="true"
     inkscape:guide-bbox="true"
     inkscape:window-width="1366"
     inkscape:window-height="738"
     inkscape:window-x="0"
     inkscape:window-y="0"
     inkscape:window-maximized="1" />
  <metadata
     id="metadata3165">
    <rdf:RDF>
      <cc:Work
         rdf:about="">
        <dc:format>image/svg+xml</dc:format>
        <dc:type
           rdf:resource="http://purl.org/dc/dcmitype/StillImage" />
        <dc:title />
      </cc:Work>
    </rdf:RDF>
  </metadata>
  <g
     inkscape:label="Layer 1"
     inkscape:groupmode="layer"
     id="layer1"
     transform="translate(0,-802.36218)">
    <flowRoot
       xml:space="preserve"
       id="flowRoot3266-5"
       style="font-size:40px;font-style:normal;font-variant:normal;font-weight:normal;font-stretch:normal;line-height:125%;letter-spacing:0px;word-spacing:0px;fill:#000000;fill-opacity:1;stroke:none;font-family:Nimbus Roman No9 L;-inkscape-font-specification:Nimbus Roman No9 L"
       transform="matrix(3.5440377,0,0,3.5442272,2313.061,3362.5797)"><flowRegion
         id="flowRegion3268-0"><rect
           id="rect3270-6"
           width="208.57655"
           height="66.31955"
           x="-634.28571"
           y="-712.85712"
           style="font-style:normal;font-variant:normal;font-weight:normal;font-stretch:normal;font-family:Nimbus Roman No9 L;-inkscape-font-specification:Nimbus Roman No9 L" /></flowRegion><flowPara
         id="flowPara3272-6"
         style="font-style:italic;font-variant:normal;font-weight:bold;font-stretch:normal;font-family:Ubuntu;-inkscape-font-specification:Ubuntu Bold Italic">Pyret</flowPara></flowRoot>    <g
       id="g3914"
       transform="matrix(0.43606983,0,0,0.43606983,266.54477,458.73646)">
      <path
         id="path3107"
         d="m 626.20165,921.66417 c 44.806,32.322 266.828,285.78793 276.421,319.03193 9.593,33.242 -0.866,49.114 28.375,53.248 35.173,4.973 36.099,-31.896 36.099,-31.896 0,0 63.53895,-6.842 57.53895,-33.842 -24.99995,-45 -41.63195,-13.512 -69.99995,-14 -28.368,-0.488 -292.877,-320.54293 -297.232,-340.99993 -3.947,-18.542 -14.115,-51.116 -39.957,-46.78 -32.672,5.482 -13.811,43.78 -13.811,43.78 0,0 -70,-20 -58.908,33.931 8.658,42.101 57.692,0.371 81.474,17.527 z"
         inkscape:connector-curvature="0"
         style="fill:#ffffff;stroke:#000000;stroke-width:20" />
      <path
         id="path3109"
         d="m 645.16365,1248.8541 c 19.505,-46.82 18.228,-45.057 107.784,-156.783 l -37.765,-26.979 c 0,0 -86.479,136.914 -103.722,145.029 -15.629,7.357 -42.466,5.293 -47.843,18.99 -11.025,28.1 33.316,37.609 33.316,37.609 0,0 -1.874,27.332 20.534,25.318 39.009,-3.508 17.42,-18.518 27.696,-43.184 z"
         inkscape:connector-curvature="0"
         style="fill:#ffffff;stroke:#000000;stroke-width:20" />
      <path
         id="path3111"
         d="m 795.24365,1003.5222 c 19.539,13.2179 68.23,27.9139 68.23,27.9139"
         inkscape:connector-curvature="0"
         style="fill:none;stroke:#231f20;stroke-width:5" />
      <path
         id="path3113"
         d="M 723.68865,939.59817"
         inkscape:connector-curvature="0"
         style="fill:none;stroke:#231f20;stroke-width:5" />
      <path
         id="path3115"
         d="M 714.91465,1081.7761"
         inkscape:connector-curvature="0"
         style="fill:#ff0019;stroke:#000000;stroke-width:20" />
      <path
         id="path3117"
         d="m 765.58765,1189.2611 c 41.811,-0.025 67.441,-23.96 69.762,-35.31 2.321,-11.352 0.165,-42.827 3.328,-64.273 3.163,-21.443 35.095,-16.357 34.852,-49.933 -0.116,-16.1 -1.076,-98.23693 -108.322,-98.82293 h 0.76 c -107.245,0.586 -107.034,82.77493 -108.322,98.82293 -2.976,37.07 34.553,34.737 37.715,56.181 3.163,21.446 -0.346,46.674 1.977,58.025 2.319,11.35 26.44,35.285 68.25,35.31 l 0,0 z"
         inkscape:connector-curvature="0"
         style="fill:#cc0001;stroke:#000000;stroke-width:20" />
      <circle
         id="circle3119"
         r="19.819"
         cy="362.33801"
         cx="371.81201"
         transform="translate(351.51865,691.16417)"
         sodipodi:cx="371.81201"
         sodipodi:cy="362.33801"
         sodipodi:rx="19.819"
         sodipodi:ry="19.819"
         style="stroke:#000000;stroke-width:4"
         d="m 391.63101,362.33801 c 0,10.94573 -8.87327,19.819 -19.819,19.819 -10.94573,0 -19.819,-8.87327 -19.819,-19.819 0,-10.94573 8.87327,-19.819 19.819,-19.819 10.94573,0 19.819,8.87327 19.819,19.819 z" />
      <path
         sodipodi:nodetypes="ccccscc"
         style="fill:#3731b6;fill-opacity:1;stroke:#000000;stroke-width:20"
         inkscape:connector-curvature="0"
         id="path3121"
         d="m 872.19137,1038.4352 c -0.74569,28.0937 -28.92018,39.1221 -28.92018,39.1221 -4.63514,3.9495 -29.05254,-8.7152 -51.72954,-24.0552 -28.839,-19.509 -78.746,-99.23693 -78.746,-99.23693 0,0 -1.81287,-11.83851 53.28513,-13.44851 55.096,-1.61 83.92618,34.24869 88.17618,41.25569 4.252,7.008 15.23966,23.68905 17.93441,56.36285 z" />
      <path
         id="path3123"
         d="m 765.58765,1022.6191 c 0,0 -8.471,60.977 26.477,58.651 13.105,-0.872 37.981,-12.124 42.635,-16.032 3.791,-3.183 -9.418,-35.373 -28.898,-44.792 -20.376,-9.8519 -40.214,2.174 -40.214,2.173"
         inkscape:connector-curvature="0"
         style="stroke:#000000;stroke-width:20" />
      <g
         id="g3125"
         transform="translate(351.51865,691.16417)">
        <path
           id="path3127"
           d="m 379.054,446.319 c 0,0 22.375,12.583 39.75,12.583 17.45,0 38.275,-13.583 38.275,-13.583"
           inkscape:connector-curvature="0"
           style="fill:none;stroke:#020202;stroke-width:7;stroke-linecap:round" />
        <line
           id="line3129"
           y2="462.569"
           x2="391.742"
           y1="441.069"
           x1="391.742"
           style="fill:none;stroke:#020202;stroke-width:7;stroke-linecap:round" />
        <line
           id="line3131"
           y2="466.569"
           x2="418.80399"
           y1="445.069"
           x1="418.80399"
           style="fill:none;stroke:#020202;stroke-width:7;stroke-linecap:round" />
        <line
           id="line3133"
           y2="462.569"
           x2="445.86499"
           y1="441.069"
           x1="445.86499"
           style="fill:none;stroke:#020202;stroke-width:7;stroke-linecap:round" />
      </g>
    </g>
  </g>
</svg>
